<?xml version="1.0" encoding="UTF-8"?>
<svg version="1.1" xmlns="http://www.w3.org/2000/svg" width="288" height="149">
<path d="M0 0 C0.99 0.66 1.98 1.32 3 2 C2.55403238 7.57459521 1.10969904 10.43986057 -2 15 C-3.09651208 17.10765095 -4.15767228 19.23397545 -5.1875 21.375 C-7.82295802 26.77426154 -10.64975278 32.030637 -13.625 37.25 C-16.94642511 43.0768406 -20.10431292 48.94670439 -23 55 C-21.96552734 55.185625 -21.96552734 55.185625 -20.91015625 55.375 C-13.24055381 57.05831467 -7.99835129 59.85149046 -3 66 C0.49808689 72.21385402 0 77.77701653 0 85 C-12.21 85 -24.42 85 -37 85 C-33.8990372 93.26923413 -32.5568161 95.53171254 -25 99 C-17.90734606 100.24432525 -12.71291353 96.80860902 -7 93 C-4.8125 93.375 -4.8125 93.375 -3 94 C-2.67 95.65 -2.34 97.3 -2 99 C-9.3664564 104.31186652 -15.61332465 107.80919615 -25 107 C-33.56460825 105.18649754 -38.8740289 100.92869627 -44 94 C-44.60473145 95.13429443 -44.60473145 95.13429443 -45.22167969 96.29150391 C-46.73256933 99.12192698 -48.24622728 101.95084717 -49.76171875 104.77880859 C-50.41450851 105.99827405 -51.06622233 107.21831615 -51.71679688 108.43896484 C-52.65725588 110.20304669 -53.60203235 111.96482464 -54.546875 113.7265625 C-55.11245117 114.78439941 -55.67802734 115.84223633 -56.26074219 116.93212891 C-61.26697504 125.76260645 -61.26697504 125.76260645 -64.47265625 126.80078125 C-68.36569393 125.56728399 -69.59514725 122.59246801 -71.4375 119.1875 C-71.82728027 118.50187988 -72.21706055 117.81625977 -72.61865234 117.10986328 C-73.76479882 115.08315817 -74.88497616 113.04395262 -76 111 C-76.82564453 109.52080078 -76.82564453 109.52080078 -77.66796875 108.01171875 C-79.1367141 105.35380156 -80.56861582 102.67819514 -82 100 C-82.63421875 98.84628906 -83.2684375 97.69257812 -83.921875 96.50390625 C-84.57296976 95.31513324 -85.22401222 94.12633159 -85.875 92.9375 C-86.47054687 91.85339844 -87.06609375 90.76929687 -87.6796875 89.65234375 C-89 87 -89 87 -89 85 C-100.22 85.33 -111.44 85.66 -123 86 C-118.73362512 94.78280349 -118.73362512 94.78280349 -111 99 C-105.2310747 100.023519 -102.72478633 99.05225341 -97.8125 95.9375 C-97.01457031 95.36902344 -96.21664062 94.80054687 -95.39453125 94.21484375 C-92.45768363 92.7248607 -91.08484697 93.04112217 -88 94 C-87.67 95.32 -87.34 96.64 -87 98 C-93.36159199 103.35621778 -99.14739534 106.38239577 -107.4375 107.4375 C-114.20833079 106.60599446 -121.24900211 104.02248349 -126 99 C-131.04839554 92.12497702 -132.54637191 85.29465966 -131.8125 76.83984375 C-130.59117849 70.44062792 -127.02598277 64.4498822 -121.96875 60.35546875 C-116.37409541 56.73355617 -111.72769909 55.45744362 -105 56 C-97.54642026 57.88247406 -92.32681134 61.83113904 -86.640625 66.87890625 C-83.88326457 69.09376825 -81.18298681 70.47951811 -78 72 C-76.35613431 73.03307156 -74.72914358 74.09376574 -73.125 75.1875 C-72.34382813 75.71730469 -71.56265625 76.24710937 -70.7578125 76.79296875 C-70.17773438 77.19128906 -69.59765625 77.58960937 -69 78 C-63.81647586 73.89637673 -59.82337593 69.51203546 -55.796875 64.26953125 C-54.28479939 62.35971402 -52.73407791 60.70007639 -51 59 C-50.319375 58.113125 -49.63875 57.22625 -48.9375 56.3125 C-48.298125 55.549375 -47.65875 54.78625 -47 54 C-46.34 54 -45.68 54 -45 54 C-44.7215625 52.9790625 -44.7215625 52.9790625 -44.4375 51.9375 C-42.74926226 48.48762288 -40.6535179 46.49404996 -37.90625 43.859375 C-34.72568433 40.75701996 -31.88835884 37.37247172 -29 34 C-28.06924434 32.92167305 -27.13823463 31.84356534 -26.20703125 30.765625 C-20.74854084 24.43465299 -15.38130112 18.04581253 -10.11328125 11.5546875 C-6.8485042 7.60798844 -3.4389655 3.79504367 0 0 Z M-119.75 68.8125 C-122.40224392 72.2442591 -122.40224392 72.2442591 -124 78 C-114.1 78 -104.2 78 -94 78 C-94.77949819 72.2510317 -94.77949819 72.2510317 -97.8125 68.25 C-98.31394531 67.67765625 -98.81539062 67.1053125 -99.33203125 66.515625 C-102.03314 64.06122173 -104.25246637 63.08125365 -107.875 62.6875 C-113.1323031 63.21323031 -116.07906273 65.05813234 -119.75 68.8125 Z M-32 67 C-32.763125 67.598125 -33.52625 68.19625 -34.3125 68.8125 C-36.65472003 71.4772931 -36.65472003 71.4772931 -37 78 C-27.43 78 -17.86 78 -8 78 C-9.09329255 69.68246725 -9.09329255 69.68246725 -11.91796875 66.80859375 C-19.56555071 62.18845387 -24.59093546 61.07274837 -32 67 Z " fill="#3CD1BC" transform="translate(282,11)"/>
<path d="M0 0 C4.3853115 2.72024841 6.63995493 6.54486478 8.25 11.375 C8.33494728 14.03394107 8.36594796 16.66585377 8.34765625 19.32421875 C8.3462413 20.09683548 8.34482635 20.86945221 8.34336853 21.66548157 C8.33777466 24.13119389 8.32522333 26.59681515 8.3125 29.0625 C8.30748421 30.73502473 8.30292144 32.40755088 8.29882812 34.08007812 C8.28780724 38.17842046 8.27054684 42.27669479 8.25 46.375 C5.94 46.375 3.63 46.375 1.25 46.375 C0.92 45.385 0.59 44.395 0.25 43.375 C-0.801875 44.014375 -1.85375 44.65375 -2.9375 45.3125 C-8.12586934 48.25500205 -12.78773295 48.86371041 -18.75 48.375 C-22.17134619 47.2295493 -25.4618777 45.85697061 -28.75 44.375 C-28.75 43.715 -28.75 43.055 -28.75 42.375 C-29.74 42.045 -30.73 41.715 -31.75 41.375 C-34.15324043 37.77013935 -34.79710077 34.63761968 -34.75 30.375 C-33.09928741 24.64605629 -30.64038825 21.7311488 -25.75 18.375 C-20.77920104 16.27281189 -16.42073812 16.1001571 -11.125 16.1875 C-10.37476562 16.18814453 -9.62453125 16.18878906 -8.8515625 16.18945312 C-5.32160463 16.21761768 -2.1452873 16.42871823 1.25 17.375 C-0.37195182 12.56958996 -1.58838539 9.16489794 -5.875 6.25 C-12.57934177 4.73611637 -18.48697439 5.61190046 -24.75 8.375 C-26.07 8.375 -27.39 8.375 -28.75 8.375 C-29.08 6.395 -29.41 4.415 -29.75 2.375 C-21.41791377 -2.80940921 -9.12208992 -4.07327843 0 0 Z M-25.75 27.375 C-26.82337805 30.82514374 -27.0247984 32.67992168 -25.6875 36.0625 C-22.44634941 39.93097006 -19.28612082 41.20742318 -14.3125 41.75 C-10.17194584 41.31415219 -7.46859674 40.1963535 -3.75 38.375 C-3.75 37.715 -3.75 37.055 -3.75 36.375 C-2.76 36.045 -1.77 35.715 -0.75 35.375 C1.77003857 31.92652617 1.40901 28.50926005 1.25 24.375 C-9.09345613 21.69336323 -16.54820828 21.24047218 -25.75 27.375 Z " fill="#52D6C5" transform="translate(37.75,69.625)"/>
<path d="M0 0 C2.31 0 4.62 0 7 0 C7 7.92 7 15.84 7 24 C9.64 22.35 12.28 20.7 15 19 C22.91241979 17.02189505 28.89439852 18.1805842 36 22 C40.14086099 26.03733946 41.88115968 30.02124483 42.22705078 35.78051758 C42.22673701 37.23522724 42.21560903 38.68996315 42.1953125 40.14453125 C42.1924826 40.91431808 42.18965271 41.68410492 42.18673706 42.47721863 C42.17559157 44.92247425 42.15049781 47.36735612 42.125 49.8125 C42.1149629 51.47590615 42.10583833 53.13931807 42.09765625 54.80273438 C42.07567073 58.86863237 42.04118014 62.93425294 42 67 C39.69 67 37.38 67 35 67 C34.98541748 66.09757568 34.97083496 65.19515137 34.95581055 64.26538086 C34.89444423 60.88979993 34.82023671 57.51499304 34.73754883 54.13989258 C34.70447017 52.68427006 34.67638603 51.22852453 34.65356445 49.77270508 C34.61970079 47.66955564 34.5673764 45.56751625 34.51171875 43.46484375 C34.47244263 41.57173462 34.47244263 41.57173462 34.43237305 39.64038086 C33.93195368 35.42708147 32.9416317 32.75750026 31 29 C27.47295269 26.31272586 24.75329932 25.78243981 20.4375 26.0625 C16.28121457 26.73309395 13.83549694 27.74751822 11 31 C7.41237294 38.32510586 7.45571124 45.44743678 7.3125 53.5 C7.27833984 54.799375 7.24417969 56.09875 7.20898438 57.4375 C7.12695535 60.62491371 7.05765545 63.81206783 7 67 C4.69 67 2.38 67 0 67 C0 44.89 0 22.78 0 0 Z " fill="#50D8C0" transform="translate(93,49)"/>
<path d="M0 0 C1.17418913 0.92806102 2.34370027 1.86224304 3.5 2.8125 C3.17 4.1325 2.84 5.4525 2.5 6.8125 C0.0625 7.6875 0.0625 7.6875 -3.5 7.8125 C-5.65625 6.54296875 -5.65625 6.54296875 -7.9375 4.875 C-11.01644086 2.65361649 -12.33503412 1.83766429 -16.1875 1.25 C-22.39252441 2.30368339 -26.52383145 4.95273844 -30.5 9.8125 C-33.24747267 16.30652632 -32.38838609 21.9036012 -30.875 28.5625 C-28.29155498 32.78995548 -24.12982701 35.26922433 -19.5 36.8125 C-13.21568581 37.71025917 -9.85043309 35.53909385 -4.83203125 32.125 C-2.5 30.8125 -2.5 30.8125 1.5 30.8125 C2.16 31.4725 2.82 32.1325 3.5 32.8125 C3.29817286 35.43625279 2.74638397 36.56130854 0.8984375 38.4453125 C-5.15094512 42.90644023 -10.5849427 45.30002568 -18.30078125 45.1484375 C-22.62189001 44.48837471 -26.55095981 42.62517419 -30.5 40.8125 C-30.5 40.1525 -30.5 39.4925 -30.5 38.8125 C-31.40878906 38.67521484 -31.40878906 38.67521484 -32.3359375 38.53515625 C-35.74473749 37.39683856 -36.65943034 35.05899913 -38.390625 32.05078125 C-42.14527275 24.4753828 -42.16375031 17.24200712 -39.69921875 9.19921875 C-36.64241625 1.87400839 -31.58997268 -1.85643525 -24.5 -5.1875 C-14.98387639 -7.59825131 -7.71190922 -5.7533291 0 0 Z " fill="#54D6C6" transform="translate(88.5,73.1875)"/>
<path d="M0 0 C3 0.125 3 0.125 4 1.125 C4.09304018 2.59854348 4.11746265 4.07650591 4.11352539 5.55297852 C4.11344986 6.49387833 4.11337433 7.43477814 4.11329651 8.40419006 C4.10813522 9.42709641 4.10297394 10.45000275 4.09765625 11.50390625 C4.0962413 12.54570541 4.09482635 13.58750458 4.09336853 14.66087341 C4.0877508 18.00311094 4.0751953 21.34528257 4.0625 24.6875 C4.05748728 26.94726466 4.05292398 29.20703037 4.04882812 31.46679688 C4.03777561 37.01955391 4.02102024 42.57227225 4 48.125 C1.66705225 48.16741723 -0.66702567 48.16592937 -3 48.125 C-4.57300328 46.55199672 -4.12725504 44.98815955 -4.12939453 42.8046875 C-4.13254669 41.88703613 -4.13569885 40.96938477 -4.13894653 40.02392578 C-4.1369223 39.02603027 -4.13489807 38.02813477 -4.1328125 37 C-4.13376923 35.98276855 -4.13472595 34.96553711 -4.13571167 33.91748047 C-4.13639361 31.76204364 -4.13453835 29.60660478 -4.13037109 27.45117188 C-4.12502305 24.13927629 -4.13031563 20.82751633 -4.13671875 17.515625 C-4.13605797 15.42708303 -4.13477681 13.33854115 -4.1328125 11.25 C-4.13483673 10.25210449 -4.13686096 9.25420898 -4.13894653 8.22607422 C-4.13579437 7.30842285 -4.13264221 6.39077148 -4.12939453 5.4453125 C-4.12859894 4.63336426 -4.12780334 3.82141602 -4.12698364 2.98486328 C-3.9107193 -0.18264786 -3.22624226 0.13442676 0 0 Z " fill="#B0ECE4" transform="translate(144,67.875)"/>
<path d="M0 0 C1.32 0 2.64 0 4 0 C4 14.85 4 29.7 4 45 C2.68 45 1.36 45 0 45 C0 30.15 0 15.3 0 0 Z " fill="#14C8B0" transform="translate(142,70)"/>
<path d="M0 0 C1.134375 0.020625 2.26875 0.04125 3.4375 0.0625 C3.4375 3.0325 3.4375 6.0025 3.4375 9.0625 C0.7975 9.0625 -1.8425 9.0625 -4.5625 9.0625 C-4.66015625 2.91015625 -4.66015625 2.91015625 -4.5625 1.0625 C-3.5625 0.0625 -3.5625 0.0625 0 0 Z " fill="#72E4C4" transform="translate(144.5625,49.9375)"/>
<path d="M0 0 C2.76451502 2.45654558 4.30055407 5.11529517 6.03125 8.3671875 C6.59457031 9.41777344 7.15789062 10.46835938 7.73828125 11.55078125 C8.31964844 12.64777344 8.90101563 13.74476562 9.5 14.875 C10.65529308 17.03957351 11.811511 19.20365371 12.96875 21.3671875 C13.47857422 22.32737793 13.98839844 23.28756836 14.51367188 24.27685547 C17.53697848 30.39501897 17.53697848 30.39501897 23 34 C20.77734375 34.42578125 20.77734375 34.42578125 18 34 C16.23046232 31.71960449 14.92062722 29.69765848 13.5625 27.1875 C13.17562012 26.50695557 12.78874023 25.82641113 12.39013672 25.12524414 C11.24114682 23.09338892 10.11848183 21.04876981 9 19 C8.40316406 17.93265625 7.80632812 16.8653125 7.19140625 15.765625 C5.76549195 13.19115629 4.37209405 10.60346051 3 8 C2.48953125 7.0409375 2.48953125 7.0409375 1.96875 6.0625 C0 2.27083333 0 2.27083333 0 0 Z " fill="#C4EEEF" transform="translate(197,103)"/>
<path d="M0 0 C0.87785156 0.31904297 0.87785156 0.31904297 1.7734375 0.64453125 C2.1034375 2.29453125 2.4334375 3.94453125 2.7734375 5.64453125 C0.7934375 6.63453125 0.7934375 6.63453125 -1.2265625 7.64453125 C-0.5665625 5.99453125 0.0934375 4.34453125 0.7734375 2.64453125 C-2.49456745 3.01801753 -3.94813843 3.37429612 -6.3515625 5.70703125 C-10.73496237 8.6610616 -15.0891727 7.96842973 -20.2265625 7.64453125 C-20.2265625 7.31453125 -20.2265625 6.98453125 -20.2265625 6.64453125 C-19.5975 6.55816406 -18.9684375 6.47179687 -18.3203125 6.3828125 C-12.62087754 5.44721248 -8.63973569 4.06299185 -4.015625 0.5703125 C-2.2265625 -0.35546875 -2.2265625 -0.35546875 0 0 Z " fill="#A8E8E4" transform="translate(277.2265625,104.35546875)"/>
<path d="M0 0 C1.04877837 3.36249553 0.98032166 6.24842373 0.8125 9.75 C0.75598568 15.54978218 1.8933721 19.17860257 5 24 C5.5775 24.99 6.155 25.98 6.75 27 C7.36875 27.99 7.36875 27.99 8 29 C3.30015469 27.15613745 2.10758765 24.20060414 0.046875 19.79296875 C-2.53699022 12.89944774 -2.53274155 6.85330066 0 0 Z " fill="#B5EDE5" transform="translate(49,83)"/>
<path d="M0 0 C1 3 1 3 0.22265625 4.82421875 C-0.8515625 6.54947917 -1.92578125 8.27473958 -3 10 C-1.82630859 10.29003906 -1.82630859 10.29003906 -0.62890625 10.5859375 C0.38300781 10.84632812 1.39492188 11.10671875 2.4375 11.375 C3.44683594 11.63023438 4.45617187 11.88546875 5.49609375 12.1484375 C8 13 8 13 9 15 C1.575 14.01 1.575 14.01 -6 13 C-4.30119563 7.90358688 -2.69062201 4.48437002 0 0 Z " fill="#C2F3E6" transform="translate(262,56)"/>
<path d="M0 0 C-0.49230769 6.4 -0.49230769 6.4 -3.0625 9.4375 C-4.0215625 10.2109375 -4.0215625 10.2109375 -5 11 C-5 9.35 -5 7.7 -5 6 C-5.99 6.99 -6.98 7.98 -8 9 C-8.66 8.67 -9.32 8.34 -10 8 C-8.90653119 6.65787938 -7.7998425 5.32652025 -6.6875 4 C-5.76517578 2.88625 -5.76517578 2.88625 -4.82421875 1.75 C-3 0 -3 0 0 0 Z " fill="#6DE4C1" transform="translate(285,13)"/>
<path d="M0 0 C0.33 0 0.66 0 1 0 C1 7.59 1 15.18 1 23 C2.32 22.01 3.64 21.02 5 20 C5.66 20.33 6.32 20.66 7 21 C5.1875 23.5 5.1875 23.5 3 26 C2.01 26 1.02 26 0 26 C0 17.42 0 8.84 0 0 Z " fill="#88E7CE" transform="translate(99,50)"/>
<path d="M0 0 C0.33 0 0.66 0 1 0 C1 3.3 1 6.6 1 10 C-0.98 10 -2.96 10 -5 10 C-5.33 9.01 -5.66 8.02 -6 7 C-6.66 6.67 -7.32 6.34 -8 6 C-6.625 4.5 -6.625 4.5 -5 3 C-4.34 3 -3.68 3 -3 3 C-3 4.98 -3 6.96 -3 9 C-2.01 9 -1.02 9 0 9 C0 6.03 0 3.06 0 0 Z " fill="#73D8D8" transform="translate(44,106)"/>
<path d="M0 0 C0.66 0.33 1.32 0.66 2 1 C0.90344712 2.31886772 -0.20253423 3.62990057 -1.3125 4.9375 C-1.92738281 5.66839844 -2.54226562 6.39929688 -3.17578125 7.15234375 C-5 9 -5 9 -8 10 C-6.5682479 4.98886765 -4.01554307 3.05530451 0 0 Z " fill="#8AE7D1" transform="translate(162,70)"/>
<path d="M0 0 C2.35729943 2.19138979 4.02057098 4.43931973 5.6875 7.1875 C6.12449219 7.90292969 6.56148437 8.61835937 7.01171875 9.35546875 C7.33785156 9.89816406 7.66398437 10.44085938 8 11 C3.28828759 9.02028891 2.23802644 6.47605288 0 2 C0 1.34 0 0.68 0 0 Z " fill="#D4F3F2" transform="translate(49,101)"/>
</svg>
