<svg width="708" height="157" viewBox="0 0 708 157" fill="none" xmlns="http://www.w3.org/2000/svg">
<rect x="272.5" y="0.5" width="31" height="31" rx="15.5" fill="#00B512"/>
<rect x="272.5" y="0.5" width="31" height="31" rx="15.5" stroke="#F9FAFB"/>
<path d="M294.384 12.0318C293.904 12.2398 293.408 12.3838 292.88 12.4478C293.424 12.1278 293.84 11.6158 294.032 10.9918C293.52 11.2958 292.96 11.5038 292.368 11.6318C291.888 11.1198 291.2 10.7998 290.448 10.7998C288.992 10.7998 287.824 11.9838 287.824 13.4238C287.824 13.6318 287.84 13.8238 287.888 14.0158C285.712 13.9198 283.792 12.8638 282.496 11.2798C281.568 12.9438 282.608 14.3198 283.296 14.7838C282.88 14.7838 282.464 14.6558 282.112 14.4638C282.112 15.7598 283.024 16.8318 284.208 17.0718C283.952 17.1518 283.376 17.1998 283.024 17.1198C283.36 18.1598 284.336 18.9278 285.472 18.9438C284.576 19.6478 283.264 20.2078 281.584 20.0318C282.752 20.7838 284.128 21.2158 285.616 21.2158C290.448 21.2158 293.072 17.2158 293.072 13.7598C293.072 13.6478 293.072 13.5358 293.056 13.4238C293.6 13.0238 294.048 12.5598 294.384 12.0318Z" fill="#EAECF0"/>
<rect x="316" width="32" height="32" rx="16" fill="#00B512"/>
<path d="M330.464 16.8322C330.416 16.8322 329.36 16.8322 328.88 16.8322C328.624 16.8322 328.544 16.7362 328.544 16.4962C328.544 15.8562 328.544 15.2002 328.544 14.5602C328.544 14.3042 328.64 14.2242 328.88 14.2242H330.464C330.464 14.1762 330.464 13.2482 330.464 12.8162C330.464 12.1762 330.576 11.5682 330.896 11.0082C331.232 10.4322 331.712 10.0482 332.32 9.82421C332.72 9.68021 333.12 9.61621 333.552 9.61621H335.12C335.344 9.61621 335.44 9.71221 335.44 9.93621V11.7602C335.44 11.9842 335.344 12.0802 335.12 12.0802C334.688 12.0802 334.256 12.0802 333.824 12.0962C333.392 12.0962 333.168 12.3042 333.168 12.7522C333.152 13.2322 333.168 13.6962 333.168 14.1922H335.024C335.28 14.1922 335.376 14.2882 335.376 14.5442V16.4802C335.376 16.7362 335.296 16.8162 335.024 16.8162C334.448 16.8162 333.216 16.8162 333.168 16.8162V22.0322C333.168 22.3042 333.088 22.4002 332.8 22.4002C332.128 22.4002 331.472 22.4002 330.8 22.4002C330.56 22.4002 330.464 22.3042 330.464 22.0642C330.464 20.3842 330.464 16.8802 330.464 16.8322Z" fill="#EAECF0"/>
<rect x="360" width="32" height="32" rx="16" fill="#00B512"/>
<g clip-path="url(#clip0_4054_1408)">
<path d="M379.669 8H372.331C369.943 8 368 9.94287 368 12.331V19.669C368 22.0571 369.943 24 372.331 24H379.669C382.057 24 384 22.0571 384 19.669V12.331C384 9.94287 382.057 8 379.669 8ZM383.062 19.669C383.062 21.5399 381.54 23.062 379.669 23.062H372.331C370.46 23.062 368.938 21.5399 368.938 19.669V12.331C368.938 10.4601 370.46 8.93799 372.331 8.93799H379.669C381.54 8.93799 383.062 10.4601 383.062 12.331V19.669Z" fill="white"/>
<path d="M376 11.625C373.588 11.625 371.625 13.5875 371.625 15.9999C371.625 18.4122 373.588 20.3747 376 20.3747C378.412 20.3747 380.375 18.4122 380.375 15.9999C380.375 13.5875 378.412 11.625 376 11.625ZM376 19.4368C374.105 19.4368 372.563 17.895 372.563 15.9999C372.563 14.1049 374.105 12.563 376 12.563C377.895 12.563 379.437 14.1049 379.437 15.9999C379.437 17.895 377.895 19.4368 376 19.4368Z" fill="white"/>
<path d="M380.479 10.0713C379.767 10.0713 379.187 10.6512 379.187 11.364C379.187 12.0769 379.767 12.6569 380.479 12.6569C381.192 12.6569 381.772 12.0769 381.772 11.364C381.772 10.6511 381.192 10.0713 380.479 10.0713ZM380.479 11.7187C380.284 11.7187 380.125 11.5596 380.125 11.364C380.125 11.1683 380.284 11.0093 380.479 11.0093C380.675 11.0093 380.834 11.1683 380.834 11.364C380.834 11.5596 380.675 11.7187 380.479 11.7187Z" fill="white"/>
</g>
<rect x="404" width="32" height="32" rx="16" fill="#00B512"/>
<path d="M426.4 22.4V17.7119C426.4 15.4079 425.904 13.6479 423.216 13.6479C421.92 13.6479 421.056 14.3519 420.704 15.0239H420.672V13.8559H418.128V22.4H420.784V18.1599C420.784 17.0399 420.992 15.9679 422.368 15.9679C423.728 15.9679 423.744 17.2319 423.744 18.2239V22.384H426.4V22.4Z" fill="white"/>
<path d="M413.808 13.856H416.464V22.4H413.808V13.856Z" fill="white"/>
<path d="M415.136 9.6001C414.288 9.6001 413.6 10.2881 413.6 11.1361C413.6 11.9841 414.288 12.6881 415.136 12.6881C415.984 12.6881 416.672 11.9841 416.672 11.1361C416.672 10.2881 415.984 9.6001 415.136 9.6001Z" fill="white"/>
<path d="M206.298 60.172C206.298 61.712 205.066 63.098 202.84 63.098C200.81 63.098 199.242 62.034 199.214 60.186H201.314C201.37 60.97 201.888 61.488 202.798 61.488C203.722 61.488 204.268 60.998 204.268 60.298C204.268 58.184 199.228 59.458 199.242 55.916C199.242 54.152 200.67 53.088 202.686 53.088C204.688 53.088 206.06 54.11 206.186 55.874H204.03C203.988 55.23 203.47 54.726 202.63 54.712C201.86 54.684 201.286 55.062 201.286 55.86C201.286 57.82 206.298 56.728 206.298 60.172ZM211.329 56.728C210.391 56.728 209.649 57.33 209.495 58.394H213.177C213.149 57.372 212.337 56.728 211.329 56.728ZM215.011 60.564C214.591 61.992 213.303 63.126 211.385 63.126C209.131 63.126 207.493 61.558 207.493 59.122C207.493 56.672 209.089 55.118 211.385 55.118C213.625 55.118 215.207 56.644 215.207 58.954C215.207 59.206 215.193 59.458 215.151 59.71H209.481C209.579 60.858 210.363 61.502 211.343 61.502C212.183 61.502 212.645 61.082 212.897 60.564H215.011ZM222.07 63V58.716C222.07 57.47 221.384 56.798 220.348 56.798C219.284 56.798 218.598 57.47 218.598 58.716V63H216.638V55.244H218.598V56.21C219.102 55.552 219.942 55.132 220.936 55.132C222.742 55.132 224.03 56.308 224.03 58.45V63H222.07ZM225.39 59.094C225.39 56.672 226.958 55.118 228.946 55.118C229.968 55.118 230.948 55.594 231.48 56.322V52.64H233.468V63H231.48V61.852C231.018 62.566 230.15 63.126 228.932 63.126C226.958 63.126 225.39 61.516 225.39 59.094ZM231.494 59.122C231.494 57.652 230.514 56.84 229.436 56.84C228.386 56.84 227.392 57.624 227.392 59.094C227.392 60.564 228.386 61.404 229.436 61.404C230.514 61.404 231.494 60.592 231.494 59.122ZM241.224 59.598L237.906 53.228H240.118L242.218 57.694L244.304 53.228H246.488L243.184 59.598V63H241.224V59.598ZM255.108 59.122C255.108 61.558 253.316 63.126 251.062 63.126C248.822 63.126 247.128 61.558 247.128 59.122C247.128 56.672 248.878 55.118 251.118 55.118C253.358 55.118 255.108 56.672 255.108 59.122ZM249.116 59.122C249.116 60.662 250.012 61.418 251.062 61.418C252.098 61.418 253.092 60.662 253.092 59.122C253.092 57.568 252.126 56.826 251.09 56.826C250.054 56.826 249.116 57.568 249.116 59.122ZM263.868 55.244V63H261.894V62.02C261.404 62.678 260.55 63.098 259.584 63.098C257.778 63.098 256.476 61.922 256.476 59.794V55.244H258.436V59.514C258.436 60.76 259.122 61.432 260.158 61.432C261.222 61.432 261.894 60.76 261.894 59.514V55.244H263.868ZM267.762 59.136V63H265.802V55.244H267.762V56.448C268.252 55.65 269.064 55.132 270.142 55.132V57.19H269.624C268.462 57.19 267.762 57.638 267.762 59.136ZM274.798 63V53.228H280.832V54.81H276.758V57.316H279.88V58.87H276.758V63H274.798ZM285.554 56.728C284.616 56.728 283.874 57.33 283.72 58.394H287.402C287.374 57.372 286.562 56.728 285.554 56.728ZM289.236 60.564C288.816 61.992 287.528 63.126 285.61 63.126C283.356 63.126 281.718 61.558 281.718 59.122C281.718 56.672 283.314 55.118 285.61 55.118C287.85 55.118 289.432 56.644 289.432 58.954C289.432 59.206 289.418 59.458 289.376 59.71H283.706C283.804 60.858 284.588 61.502 285.568 61.502C286.408 61.502 286.87 61.082 287.122 60.564H289.236ZM294.194 56.728C293.256 56.728 292.514 57.33 292.36 58.394H296.042C296.014 57.372 295.202 56.728 294.194 56.728ZM297.876 60.564C297.456 61.992 296.168 63.126 294.25 63.126C291.996 63.126 290.358 61.558 290.358 59.122C290.358 56.672 291.954 55.118 294.25 55.118C296.49 55.118 298.072 56.644 298.072 58.954C298.072 59.206 298.058 59.458 298.016 59.71H292.346C292.444 60.858 293.228 61.502 294.208 61.502C295.048 61.502 295.51 61.082 295.762 60.564H297.876ZM298.999 59.094C298.999 56.672 300.567 55.118 302.555 55.118C303.577 55.118 304.557 55.594 305.089 56.322V52.64H307.077V63H305.089V61.852C304.627 62.566 303.759 63.126 302.541 63.126C300.567 63.126 298.999 61.516 298.999 59.094ZM305.103 59.122C305.103 57.652 304.123 56.84 303.045 56.84C301.995 56.84 301.001 57.624 301.001 59.094C301.001 60.564 301.995 61.404 303.045 61.404C304.123 61.404 305.103 60.592 305.103 59.122ZM310.951 56.378C311.427 55.664 312.337 55.118 313.513 55.118C315.501 55.118 317.055 56.672 317.055 59.094C317.055 61.516 315.501 63.126 313.513 63.126C312.295 63.126 311.427 62.566 310.951 61.894V63H308.991V52.64H310.951V56.378ZM315.053 59.094C315.053 57.624 314.059 56.84 312.995 56.84C311.945 56.84 310.951 57.652 310.951 59.122C310.951 60.592 311.945 61.404 312.995 61.404C314.059 61.404 315.053 60.564 315.053 59.094ZM317.976 59.094C317.976 56.672 319.544 55.118 321.518 55.118C322.764 55.118 323.618 55.706 324.08 56.35V55.244H326.054V63H324.08V61.866C323.618 62.538 322.736 63.126 321.504 63.126C319.544 63.126 317.976 61.516 317.976 59.094ZM324.08 59.122C324.08 57.652 323.1 56.84 322.022 56.84C320.972 56.84 319.978 57.624 319.978 59.094C319.978 60.564 320.972 61.404 322.022 61.404C323.1 61.404 324.08 60.592 324.08 59.122ZM327.464 59.122C327.464 56.686 329.06 55.118 331.3 55.118C333.232 55.118 334.534 56.126 334.954 57.862H332.84C332.616 57.204 332.098 56.784 331.286 56.784C330.194 56.784 329.466 57.61 329.466 59.122C329.466 60.634 330.194 61.446 331.286 61.446C332.098 61.446 332.602 61.082 332.84 60.382H334.954C334.534 62.034 333.232 63.126 331.3 63.126C329.06 63.126 327.464 61.558 327.464 59.122ZM336.39 63V52.64H338.35V58.534L340.954 55.244H343.502L340.086 59.136L343.53 63H340.982L338.35 59.696V63H336.39ZM349.96 61.95C349.96 62.594 349.456 63.098 348.77 63.098C348.056 63.098 347.552 62.594 347.552 61.95C347.552 61.306 348.056 60.802 348.77 60.802C349.456 60.802 349.96 61.306 349.96 61.95ZM349.96 56.154C349.96 56.798 349.456 57.302 348.77 57.302C348.056 57.302 347.552 56.798 347.552 56.154C347.552 55.51 348.056 55.006 348.77 55.006C349.456 55.006 349.96 55.51 349.96 56.154Z" fill="black"/>
<path d="M360.236 54.082C359.993 54.082 359.788 53.998 359.62 53.83C359.452 53.662 359.368 53.4567 359.368 53.214C359.368 52.9713 359.452 52.766 359.62 52.598C359.788 52.43 359.993 52.346 360.236 52.346C360.469 52.346 360.665 52.43 360.824 52.598C360.992 52.766 361.076 52.9713 361.076 53.214C361.076 53.4567 360.992 53.662 360.824 53.83C360.665 53.998 360.469 54.082 360.236 54.082ZM360.852 55.328V63H359.578V55.328H360.852ZM366.761 55.188C367.695 55.188 368.451 55.4727 369.029 56.042C369.608 56.602 369.897 57.414 369.897 58.478V63H368.637V58.66C368.637 57.8947 368.446 57.3113 368.063 56.91C367.681 56.4993 367.158 56.294 366.495 56.294C365.823 56.294 365.287 56.504 364.885 56.924C364.493 57.344 364.297 57.9553 364.297 58.758V63H363.023V55.328H364.297V56.42C364.549 56.028 364.89 55.7247 365.319 55.51C365.758 55.2953 366.239 55.188 366.761 55.188ZM375.1 56.378H373.49V63H372.216V56.378H371.222V55.328H372.216V54.782C372.216 53.9233 372.436 53.298 372.874 52.906C373.322 52.5047 374.036 52.304 375.016 52.304V53.368C374.456 53.368 374.06 53.48 373.826 53.704C373.602 53.9187 373.49 54.278 373.49 54.782V55.328H375.1V56.378ZM379.932 63.126C379.213 63.126 378.56 62.9627 377.972 62.636C377.393 62.3093 376.936 61.8473 376.6 61.25C376.273 60.6433 376.11 59.9433 376.11 59.15C376.11 58.366 376.278 57.6753 376.614 57.078C376.959 56.4713 377.426 56.0093 378.014 55.692C378.602 55.3653 379.26 55.202 379.988 55.202C380.716 55.202 381.374 55.3653 381.962 55.692C382.55 56.0093 383.012 56.4667 383.348 57.064C383.693 57.6613 383.866 58.3567 383.866 59.15C383.866 59.9433 383.688 60.6433 383.334 61.25C382.988 61.8473 382.517 62.3093 381.92 62.636C381.322 62.9627 380.66 63.126 379.932 63.126ZM379.932 62.006C380.389 62.006 380.818 61.8987 381.22 61.684C381.621 61.4693 381.943 61.1473 382.186 60.718C382.438 60.2887 382.564 59.766 382.564 59.15C382.564 58.534 382.442 58.0113 382.2 57.582C381.957 57.1527 381.64 56.8353 381.248 56.63C380.856 56.4153 380.431 56.308 379.974 56.308C379.507 56.308 379.078 56.4153 378.686 56.63C378.303 56.8353 377.995 57.1527 377.762 57.582C377.528 58.0113 377.412 58.534 377.412 59.15C377.412 59.7753 377.524 60.3027 377.748 60.732C377.981 61.1613 378.289 61.4833 378.672 61.698C379.054 61.9033 379.474 62.006 379.932 62.006ZM392.541 54.026C393.577 54.026 394.478 54.222 395.243 54.614C396.008 55.006 396.596 55.5567 397.007 56.266C397.418 56.966 397.623 57.778 397.623 58.702C397.623 59.4393 397.502 60.1487 397.259 60.83C397.016 61.502 396.662 62.048 396.195 62.468C395.738 62.888 395.201 63.098 394.585 63.098C394.118 63.098 393.759 62.9813 393.507 62.748C393.255 62.5147 393.11 62.1973 393.073 61.796C392.784 62.1973 392.415 62.5147 391.967 62.748C391.528 62.9813 391.062 63.098 390.567 63.098C389.858 63.098 389.298 62.8833 388.887 62.454C388.486 62.0153 388.285 61.4273 388.285 60.69C388.285 59.99 388.43 59.3367 388.719 58.73C389.018 58.1233 389.428 57.638 389.951 57.274C390.474 56.9007 391.066 56.714 391.729 56.714C392.616 56.714 393.213 57.05 393.521 57.722L393.675 56.854H394.781L394.081 60.9C394.053 61.0773 394.039 61.2407 394.039 61.39C394.039 61.95 394.286 62.23 394.781 62.23C395.154 62.23 395.476 62.0527 395.747 61.698C396.027 61.3433 396.237 60.9 396.377 60.368C396.517 59.8267 396.587 59.2947 396.587 58.772C396.587 57.5493 396.218 56.602 395.481 55.93C394.753 55.258 393.722 54.922 392.387 54.922C391.276 54.922 390.273 55.1927 389.377 55.734C388.49 56.266 387.795 56.9987 387.291 57.932C386.787 58.8653 386.535 59.8967 386.535 61.026C386.526 62.258 386.894 63.2053 387.641 63.868C388.388 64.54 389.424 64.876 390.749 64.876C391.626 64.876 392.401 64.7173 393.073 64.4L393.241 65.268C392.41 65.6133 391.496 65.786 390.497 65.786C389.498 65.786 388.616 65.5947 387.851 65.212C387.095 64.8387 386.507 64.2973 386.087 63.588C385.676 62.888 385.471 62.0713 385.471 61.138C385.471 59.822 385.774 58.6227 386.381 57.54C386.988 56.448 387.828 55.5893 388.901 54.964C389.984 54.3387 391.197 54.026 392.541 54.026ZM390.945 62.104C391.365 62.104 391.752 61.9827 392.107 61.74C392.462 61.488 392.742 61.152 392.947 60.732C393.152 60.3027 393.255 59.836 393.255 59.332C393.255 58.8467 393.12 58.4547 392.849 58.156C392.588 57.848 392.214 57.694 391.729 57.694C391.281 57.694 390.884 57.8293 390.539 58.1C390.203 58.3613 389.942 58.7113 389.755 59.15C389.568 59.5793 389.475 60.0273 389.475 60.494C389.475 60.9887 389.601 61.3807 389.853 61.67C390.105 61.9593 390.469 62.104 390.945 62.104ZM403.457 55.188C404.39 55.188 405.146 55.4727 405.725 56.042C406.303 56.602 406.593 57.414 406.593 58.478V63H405.333V58.66C405.333 57.8947 405.141 57.3113 404.759 56.91C404.376 56.4993 403.853 56.294 403.191 56.294C402.519 56.294 401.982 56.504 401.581 56.924C401.189 57.344 400.993 57.9553 400.993 58.758V63H399.719V55.328H400.993V56.42C401.245 56.028 401.585 55.7247 402.015 55.51C402.453 55.2953 402.934 55.188 403.457 55.188ZM415.674 58.87C415.674 59.1127 415.66 59.3693 415.632 59.64H409.5C409.546 60.396 409.803 60.9887 410.27 61.418C410.746 61.838 411.32 62.048 411.992 62.048C412.542 62.048 413 61.922 413.364 61.67C413.737 61.4087 413.998 61.0633 414.148 60.634H415.52C415.314 61.3713 414.904 61.9733 414.288 62.44C413.672 62.8973 412.906 63.126 411.992 63.126C411.264 63.126 410.61 62.9627 410.032 62.636C409.462 62.3093 409.014 61.8473 408.688 61.25C408.361 60.6433 408.198 59.9433 408.198 59.15C408.198 58.3567 408.356 57.6613 408.674 57.064C408.991 56.4667 409.434 56.0093 410.004 55.692C410.582 55.3653 411.245 55.202 411.992 55.202C412.72 55.202 413.364 55.3607 413.924 55.678C414.484 55.9953 414.913 56.434 415.212 56.994C415.52 57.5447 415.674 58.17 415.674 58.87ZM414.358 58.604C414.358 58.1187 414.25 57.7033 414.036 57.358C413.821 57.0033 413.527 56.7373 413.154 56.56C412.79 56.3733 412.384 56.28 411.936 56.28C411.292 56.28 410.741 56.4853 410.284 56.896C409.836 57.3067 409.579 57.876 409.514 58.604H414.358ZM424.159 55.328V63H422.885V61.866C422.643 62.258 422.302 62.566 421.863 62.79C421.434 63.0047 420.958 63.112 420.435 63.112C419.838 63.112 419.301 62.9907 418.825 62.748C418.349 62.496 417.971 62.1227 417.691 61.628C417.421 61.1333 417.285 60.5313 417.285 59.822V55.328H418.545V59.654C418.545 60.41 418.737 60.9933 419.119 61.404C419.502 61.8053 420.025 62.006 420.687 62.006C421.369 62.006 421.905 61.796 422.297 61.376C422.689 60.956 422.885 60.3447 422.885 59.542V55.328H424.159ZM427.584 56.574C427.808 56.1353 428.126 55.7947 428.536 55.552C428.956 55.3093 429.465 55.188 430.062 55.188V56.504H429.726C428.298 56.504 427.584 57.2787 427.584 58.828V63H426.31V55.328H427.584V56.574ZM431.057 59.136C431.057 58.352 431.216 57.666 431.533 57.078C431.85 56.4807 432.284 56.0187 432.835 55.692C433.395 55.3653 434.016 55.202 434.697 55.202C435.369 55.202 435.952 55.3467 436.447 55.636C436.942 55.9253 437.31 56.2893 437.553 56.728V55.328H438.841V63H437.553V61.572C437.301 62.02 436.923 62.3933 436.419 62.692C435.924 62.9813 435.346 63.126 434.683 63.126C434.002 63.126 433.386 62.958 432.835 62.622C432.284 62.286 431.85 61.8147 431.533 61.208C431.216 60.6013 431.057 59.9107 431.057 59.136ZM437.553 59.15C437.553 58.5713 437.436 58.0673 437.203 57.638C436.97 57.2087 436.652 56.882 436.251 56.658C435.859 56.4247 435.425 56.308 434.949 56.308C434.473 56.308 434.039 56.42 433.647 56.644C433.255 56.868 432.942 57.1947 432.709 57.624C432.476 58.0533 432.359 58.5573 432.359 59.136C432.359 59.724 432.476 60.2373 432.709 60.676C432.942 61.1053 433.255 61.4367 433.647 61.67C434.039 61.894 434.473 62.006 434.949 62.006C435.425 62.006 435.859 61.894 436.251 61.67C436.652 61.4367 436.97 61.1053 437.203 60.676C437.436 60.2373 437.553 59.7287 437.553 59.15ZM442.268 52.64V63H440.994V52.64H442.268ZM445.993 56.378V60.9C445.993 61.2733 446.073 61.5393 446.231 61.698C446.39 61.8473 446.665 61.922 447.057 61.922H447.995V63H446.847C446.138 63 445.606 62.8367 445.251 62.51C444.897 62.1833 444.719 61.6467 444.719 60.9V56.378H443.725V55.328H444.719V53.396H445.993V55.328H447.995V56.378H445.993ZM456.539 58.87C456.539 59.1127 456.525 59.3693 456.497 59.64H450.365C450.412 60.396 450.668 60.9887 451.135 61.418C451.611 61.838 452.185 62.048 452.857 62.048C453.408 62.048 453.865 61.922 454.229 61.67C454.602 61.4087 454.864 61.0633 455.013 60.634H456.385C456.18 61.3713 455.769 61.9733 455.153 62.44C454.537 62.8973 453.772 63.126 452.857 63.126C452.129 63.126 451.476 62.9627 450.897 62.636C450.328 62.3093 449.88 61.8473 449.553 61.25C449.226 60.6433 449.063 59.9433 449.063 59.15C449.063 58.3567 449.222 57.6613 449.539 57.064C449.856 56.4667 450.3 56.0093 450.869 55.692C451.448 55.3653 452.11 55.202 452.857 55.202C453.585 55.202 454.229 55.3607 454.789 55.678C455.349 55.9953 455.778 56.434 456.077 56.994C456.385 57.5447 456.539 58.17 456.539 58.87ZM455.223 58.604C455.223 58.1187 455.116 57.7033 454.901 57.358C454.686 57.0033 454.392 56.7373 454.019 56.56C453.655 56.3733 453.249 56.28 452.801 56.28C452.157 56.28 451.606 56.4853 451.149 56.896C450.701 57.3067 450.444 57.876 450.379 58.604H455.223ZM457.745 59.15C457.745 58.3567 457.903 57.666 458.221 57.078C458.538 56.4807 458.977 56.0187 459.537 55.692C460.106 55.3653 460.755 55.202 461.483 55.202C462.425 55.202 463.2 55.4307 463.807 55.888C464.423 56.3453 464.829 56.98 465.025 57.792H463.653C463.522 57.3253 463.265 56.9567 462.883 56.686C462.509 56.4153 462.043 56.28 461.483 56.28C460.755 56.28 460.167 56.532 459.719 57.036C459.271 57.5307 459.047 58.2353 459.047 59.15C459.047 60.074 459.271 60.788 459.719 61.292C460.167 61.796 460.755 62.048 461.483 62.048C462.043 62.048 462.509 61.9173 462.883 61.656C463.256 61.3947 463.513 61.0213 463.653 60.536H465.025C464.819 61.32 464.409 61.95 463.793 62.426C463.177 62.8927 462.407 63.126 461.483 63.126C460.755 63.126 460.106 62.9627 459.537 62.636C458.977 62.3093 458.538 61.8473 458.221 61.25C457.903 60.6527 457.745 59.9527 457.745 59.15ZM470.532 55.188C471.111 55.188 471.634 55.314 472.1 55.566C472.567 55.8087 472.931 56.1773 473.192 56.672C473.463 57.1667 473.598 57.7687 473.598 58.478V63H472.338V58.66C472.338 57.8947 472.147 57.3113 471.764 56.91C471.382 56.4993 470.859 56.294 470.196 56.294C469.524 56.294 468.988 56.504 468.586 56.924C468.194 57.344 467.998 57.9553 467.998 58.758V63H466.724V52.64H467.998V56.42C468.25 56.028 468.596 55.7247 469.034 55.51C469.482 55.2953 469.982 55.188 470.532 55.188ZM476.086 63.084C475.843 63.084 475.638 63 475.47 62.832C475.302 62.664 475.218 62.4587 475.218 62.216C475.218 61.9733 475.302 61.768 475.47 61.6C475.638 61.432 475.843 61.348 476.086 61.348C476.319 61.348 476.515 61.432 476.674 61.6C476.842 61.768 476.926 61.9733 476.926 62.216C476.926 62.4587 476.842 62.664 476.674 62.832C476.515 63 476.319 63.084 476.086 63.084ZM478.143 59.15C478.143 58.3567 478.302 57.666 478.619 57.078C478.936 56.4807 479.375 56.0187 479.935 55.692C480.504 55.3653 481.153 55.202 481.881 55.202C482.824 55.202 483.598 55.4307 484.205 55.888C484.821 56.3453 485.227 56.98 485.423 57.792H484.051C483.92 57.3253 483.664 56.9567 483.281 56.686C482.908 56.4153 482.441 56.28 481.881 56.28C481.153 56.28 480.565 56.532 480.117 57.036C479.669 57.5307 479.445 58.2353 479.445 59.15C479.445 60.074 479.669 60.788 480.117 61.292C480.565 61.796 481.153 62.048 481.881 62.048C482.441 62.048 482.908 61.9173 483.281 61.656C483.654 61.3947 483.911 61.0213 484.051 60.536H485.423C485.218 61.32 484.807 61.95 484.191 62.426C483.575 62.8927 482.805 63.126 481.881 63.126C481.153 63.126 480.504 62.9627 479.935 62.636C479.375 62.3093 478.936 61.8473 478.619 61.25C478.302 60.6527 478.143 59.9527 478.143 59.15ZM490.469 63.126C489.75 63.126 489.097 62.9627 488.509 62.636C487.93 62.3093 487.473 61.8473 487.137 61.25C486.81 60.6433 486.647 59.9433 486.647 59.15C486.647 58.366 486.815 57.6753 487.151 57.078C487.496 56.4713 487.963 56.0093 488.551 55.692C489.139 55.3653 489.797 55.202 490.525 55.202C491.253 55.202 491.911 55.3653 492.499 55.692C493.087 56.0093 493.549 56.4667 493.885 57.064C494.23 57.6613 494.403 58.3567 494.403 59.15C494.403 59.9433 494.226 60.6433 493.871 61.25C493.526 61.8473 493.054 62.3093 492.457 62.636C491.86 62.9627 491.197 63.126 490.469 63.126ZM490.469 62.006C490.926 62.006 491.356 61.8987 491.757 61.684C492.158 61.4693 492.48 61.1473 492.723 60.718C492.975 60.2887 493.101 59.766 493.101 59.15C493.101 58.534 492.98 58.0113 492.737 57.582C492.494 57.1527 492.177 56.8353 491.785 56.63C491.393 56.4153 490.968 56.308 490.511 56.308C490.044 56.308 489.615 56.4153 489.223 56.63C488.84 56.8353 488.532 57.1527 488.299 57.582C488.066 58.0113 487.949 58.534 487.949 59.15C487.949 59.7753 488.061 60.3027 488.285 60.732C488.518 61.1613 488.826 61.4833 489.209 61.698C489.592 61.9033 490.012 62.006 490.469 62.006ZM505.304 55.188C505.901 55.188 506.433 55.314 506.9 55.566C507.367 55.8087 507.735 56.1773 508.006 56.672C508.277 57.1667 508.412 57.7687 508.412 58.478V63H507.152V58.66C507.152 57.8947 506.961 57.3113 506.578 56.91C506.205 56.4993 505.696 56.294 505.052 56.294C504.389 56.294 503.862 56.5087 503.47 56.938C503.078 57.358 502.882 57.9693 502.882 58.772V63H501.622V58.66C501.622 57.8947 501.431 57.3113 501.048 56.91C500.675 56.4993 500.166 56.294 499.522 56.294C498.859 56.294 498.332 56.5087 497.94 56.938C497.548 57.358 497.352 57.9693 497.352 58.772V63H496.078V55.328H497.352V56.434C497.604 56.0327 497.94 55.7247 498.36 55.51C498.789 55.2953 499.261 55.188 499.774 55.188C500.418 55.188 500.987 55.3327 501.482 55.622C501.977 55.9113 502.345 56.336 502.588 56.896C502.803 56.3547 503.157 55.9347 503.652 55.636C504.147 55.3373 504.697 55.188 505.304 55.188Z" fill="black"/>
<path d="M2.688 101.144H4.832C6.496 101.144 7.2 100.36 7.2 99.112C7.2 97.816 6.496 97.048 4.832 97.048H2.688V101.144ZM8.688 99.112C8.688 100.808 7.6 102.344 4.832 102.344H2.688V107H1.232V95.848H4.832C7.456 95.848 8.688 97.288 8.688 99.112ZM11.9536 102.232V107H10.4976V98.232H11.9536V99.656C12.4496 98.68 13.3936 98.072 14.7856 98.072V99.576H14.4016C13.0096 99.576 11.9536 100.2 11.9536 102.232ZM16.4664 107V98.232H17.9224V107H16.4664ZM17.2184 96.808C16.6584 96.808 16.2264 96.376 16.2264 95.816C16.2264 95.256 16.6584 94.824 17.2184 94.824C17.7464 94.824 18.1784 95.256 18.1784 95.816C18.1784 96.376 17.7464 96.808 17.2184 96.808ZM19.3639 98.232H20.9319L23.6679 105.656L26.3879 98.232H27.9399L24.4999 107H22.8039L19.3639 98.232ZM28.8286 102.584C28.8286 99.848 30.6366 98.088 32.9886 98.088C34.6206 98.088 35.7406 98.92 36.2526 99.832V98.232H37.7246V107H36.2526V105.368C35.7246 106.312 34.5886 107.144 32.9726 107.144C30.6366 107.144 28.8286 105.304 28.8286 102.584ZM36.2526 102.6C36.2526 100.568 34.8766 99.352 33.2766 99.352C31.6766 99.352 30.3166 100.52 30.3166 102.584C30.3166 104.648 31.6766 105.864 33.2766 105.864C34.8766 105.864 36.2526 104.664 36.2526 102.6ZM39.6411 102.6C39.6411 99.848 41.4171 98.088 43.9131 98.088C46.0891 98.088 47.5131 99.208 47.9611 101.048H46.3931C46.0891 99.992 45.2091 99.32 43.9131 99.32C42.3131 99.32 41.1291 100.456 41.1291 102.6C41.1291 104.776 42.3131 105.912 43.9131 105.912C45.2091 105.912 46.0731 105.288 46.3931 104.184H47.9611C47.5131 105.928 46.0891 107.144 43.9131 107.144C41.4171 107.144 39.6411 105.384 39.6411 102.6ZM53.2319 105.336L55.9519 98.232H57.4559L52.1759 111.128H50.6719L52.3999 106.904L48.8639 98.232H50.4799L53.2319 105.336ZM64.6411 101.144H66.7851C68.4491 101.144 69.1531 100.36 69.1531 99.112C69.1531 97.816 68.4491 97.048 66.7851 97.048H64.6411V101.144ZM70.6411 99.112C70.6411 100.808 69.5531 102.344 66.7851 102.344H64.6411V107H63.1851V95.848H66.7851C69.4091 95.848 70.6411 97.288 70.6411 99.112ZM80.7708 102.6C80.7708 105.384 78.7708 107.144 76.2748 107.144C73.7948 107.144 71.9068 105.384 71.9068 102.6C71.9068 99.832 73.8588 98.088 76.3388 98.088C78.8348 98.088 80.7708 99.832 80.7708 102.6ZM73.3948 102.6C73.3948 104.824 74.7548 105.864 76.2748 105.864C77.7948 105.864 79.2828 104.824 79.2828 102.6C79.2828 100.392 77.8268 99.352 76.3228 99.352C74.7868 99.352 73.3948 100.392 73.3948 102.6ZM82.6851 107V95.16H84.1411V107H82.6851ZM86.6226 107V98.232H88.0786V107H86.6226ZM87.3746 96.808C86.8146 96.808 86.3826 96.376 86.3826 95.816C86.3826 95.256 86.8146 94.824 87.3746 94.824C87.9026 94.824 88.3346 95.256 88.3346 95.816C88.3346 96.376 87.9026 96.808 87.3746 96.808ZM90.0161 102.6C90.0161 99.848 91.7921 98.088 94.2881 98.088C96.4641 98.088 97.8881 99.208 98.3361 101.048H96.7681C96.4641 99.992 95.5841 99.32 94.2881 99.32C92.6881 99.32 91.5041 100.456 91.5041 102.6C91.5041 104.776 92.6881 105.912 94.2881 105.912C95.5841 105.912 96.4481 105.288 96.7681 104.184H98.3361C97.8881 105.928 96.4641 107.144 94.2881 107.144C91.7921 107.144 90.0161 105.384 90.0161 102.6ZM103.607 105.336L106.327 98.232H107.831L102.551 111.128H101.047L102.775 106.904L99.2389 98.232H100.855L103.607 105.336ZM122.459 94.28H123.915V108.696H122.459V94.28ZM138.857 97.032V95.848H146.409V97.032H143.369V107H141.913V97.032H138.857ZM151.929 99.32C150.505 99.32 149.321 100.264 149.161 101.976H154.697C154.713 100.264 153.433 99.32 151.929 99.32ZM156.025 104.296C155.577 105.896 154.169 107.144 151.993 107.144C149.497 107.144 147.657 105.384 147.657 102.6C147.657 99.832 149.433 98.088 151.993 98.088C154.537 98.088 156.201 99.88 156.201 102.28C156.201 102.6 156.185 102.856 156.153 103.16H149.145C149.257 104.936 150.505 105.912 151.993 105.912C153.305 105.912 154.137 105.24 154.457 104.296H156.025ZM159.579 102.232V107H158.123V98.232H159.579V99.656C160.075 98.68 161.019 98.072 162.411 98.072V99.576H162.027C160.635 99.576 159.579 100.2 159.579 102.232ZM176.747 107V102.04C176.747 100.248 175.787 99.336 174.347 99.336C172.875 99.336 171.867 100.28 171.867 102.168V107H170.427V102.04C170.427 100.248 169.467 99.336 168.027 99.336C166.555 99.336 165.547 100.28 165.547 102.168V107H164.091V98.232H165.547V99.496C166.123 98.568 167.163 98.072 168.315 98.072C169.755 98.072 170.955 98.712 171.531 100.024C172.043 98.76 173.291 98.072 174.635 98.072C176.635 98.072 178.187 99.32 178.187 101.832V107H176.747ZM186.88 104.616C186.88 106.056 185.616 107.144 183.68 107.144C181.632 107.144 180.192 106.024 180.096 104.424H181.6C181.68 105.272 182.432 105.912 183.664 105.912C184.816 105.912 185.456 105.336 185.456 104.616C185.456 102.664 180.272 103.8 180.272 100.536C180.272 99.192 181.536 98.088 183.488 98.088C185.424 98.088 186.704 99.128 186.8 100.84H185.344C185.28 99.96 184.608 99.32 183.44 99.32C182.368 99.32 181.728 99.832 181.728 100.536C181.728 102.616 186.816 101.48 186.88 104.616ZM199.921 98.232H198.465C198.497 97.32 197.889 96.824 197.105 96.824C196.241 96.824 195.681 97.368 195.681 98.104C195.681 98.76 196.049 99.304 196.833 100.136L200.161 103.48C200.257 103.336 200.353 103.192 200.449 103.032L201.537 101.208H203.105L201.793 103.48C201.585 103.848 201.377 104.168 201.153 104.488L203.665 107H201.761L200.305 105.528C199.233 106.648 198.033 107.192 196.465 107.192C194.145 107.192 192.561 105.864 192.561 103.8C192.561 102.264 193.441 101.032 195.185 100.344C194.497 99.544 194.225 98.92 194.225 98.104C194.225 96.68 195.361 95.624 197.169 95.624C198.929 95.624 200.001 96.744 199.921 98.232ZM196.465 105.944C197.617 105.944 198.513 105.496 199.345 104.568L196.065 101.272C194.673 101.8 194.017 102.632 194.017 103.752C194.017 105 195.009 105.944 196.465 105.944ZM208.751 101.416C208.751 98.072 211.199 95.704 214.319 95.704C216.735 95.704 218.655 96.92 219.487 99.08H217.743C217.135 97.736 215.951 96.984 214.319 96.984C211.983 96.984 210.239 98.68 210.239 101.416C210.239 104.136 211.983 105.832 214.319 105.832C215.951 105.832 217.135 105.08 217.743 103.752H219.487C218.655 105.896 216.735 107.096 214.319 107.096C211.199 107.096 208.751 104.76 208.751 101.416ZM229.974 102.6C229.974 105.384 227.974 107.144 225.478 107.144C222.998 107.144 221.11 105.384 221.11 102.6C221.11 99.832 223.062 98.088 225.542 98.088C228.038 98.088 229.974 99.832 229.974 102.6ZM222.598 102.6C222.598 104.824 223.958 105.864 225.478 105.864C226.998 105.864 228.486 104.824 228.486 102.6C228.486 100.392 227.03 99.352 225.526 99.352C223.99 99.352 222.598 100.392 222.598 102.6ZM238.304 107V102.04C238.304 100.248 237.328 99.336 235.856 99.336C234.368 99.336 233.344 100.264 233.344 102.152V107H231.888V98.232H233.344V99.48C233.92 98.568 234.976 98.072 236.16 98.072C238.192 98.072 239.744 99.32 239.744 101.832V107H238.304ZM241.579 102.584C241.579 99.848 243.387 98.088 245.755 98.088C247.131 98.088 248.395 98.792 249.003 99.8V95.16H250.475V107H249.003V105.352C248.475 106.328 247.339 107.144 245.739 107.144C243.387 107.144 241.579 105.304 241.579 102.584ZM249.003 102.6C249.003 100.568 247.627 99.352 246.027 99.352C244.427 99.352 243.067 100.52 243.067 102.584C243.067 104.648 244.427 105.864 246.027 105.864C247.627 105.864 249.003 104.664 249.003 102.6ZM252.935 107V98.232H254.391V107H252.935ZM253.687 96.808C253.127 96.808 252.695 96.376 252.695 95.816C252.695 95.256 253.127 94.824 253.687 94.824C254.215 94.824 254.647 95.256 254.647 95.816C254.647 96.376 254.215 96.808 253.687 96.808ZM257.193 104.6V99.432H256.057V98.232H257.193V96.024H258.649V98.232H260.937V99.432H258.649V104.6C258.649 105.464 258.969 105.768 259.865 105.768H260.937V107H259.625C258.073 107 257.193 106.36 257.193 104.6ZM262.701 107V98.232H264.157V107H262.701ZM263.453 96.808C262.893 96.808 262.461 96.376 262.461 95.816C262.461 95.256 262.893 94.824 263.453 94.824C263.981 94.824 264.413 95.256 264.413 95.816C264.413 96.376 263.981 96.808 263.453 96.808ZM274.958 102.6C274.958 105.384 272.958 107.144 270.462 107.144C267.982 107.144 266.094 105.384 266.094 102.6C266.094 99.832 268.046 98.088 270.526 98.088C273.022 98.088 274.958 99.832 274.958 102.6ZM267.582 102.6C267.582 104.824 268.942 105.864 270.462 105.864C271.982 105.864 273.47 104.824 273.47 102.6C273.47 100.392 272.014 99.352 270.51 99.352C268.974 99.352 267.582 100.392 267.582 102.6ZM283.289 107V102.04C283.289 100.248 282.313 99.336 280.841 99.336C279.353 99.336 278.329 100.264 278.329 102.152V107H276.873V98.232H278.329V99.48C278.905 98.568 279.961 98.072 281.145 98.072C283.177 98.072 284.729 99.32 284.729 101.832V107H283.289ZM300.272 94.28H301.728V108.696H300.272V94.28ZM316.813 101.416C316.813 98.072 319.261 95.704 322.381 95.704C324.797 95.704 326.717 96.92 327.549 99.08H325.805C325.197 97.736 324.013 96.984 322.381 96.984C320.045 96.984 318.301 98.68 318.301 101.416C318.301 104.136 320.045 105.832 322.381 105.832C324.013 105.832 325.197 105.08 325.805 103.752H327.549C326.717 105.896 324.797 107.096 322.381 107.096C319.261 107.096 316.813 104.76 316.813 101.416ZM338.036 102.6C338.036 105.384 336.036 107.144 333.54 107.144C331.06 107.144 329.172 105.384 329.172 102.6C329.172 99.832 331.124 98.088 333.604 98.088C336.1 98.088 338.036 99.832 338.036 102.6ZM330.66 102.6C330.66 104.824 332.02 105.864 333.54 105.864C335.06 105.864 336.548 104.824 336.548 102.6C336.548 100.392 335.092 99.352 333.588 99.352C332.052 99.352 330.66 100.392 330.66 102.6ZM348.271 102.6C348.271 105.384 346.271 107.144 343.775 107.144C341.295 107.144 339.407 105.384 339.407 102.6C339.407 99.832 341.359 98.088 343.839 98.088C346.335 98.088 348.271 99.832 348.271 102.6ZM340.895 102.6C340.895 104.824 342.255 105.864 343.775 105.864C345.295 105.864 346.783 104.824 346.783 102.6C346.783 100.392 345.327 99.352 343.823 99.352C342.287 99.352 340.895 100.392 340.895 102.6ZM350.185 107V95.16H351.641V102.12L355.017 98.232H357.049L352.921 102.6L357.065 107H355.081L351.641 103.128V107H350.185ZM358.42 107V98.232H359.876V107H358.42ZM359.172 96.808C358.612 96.808 358.18 96.376 358.18 95.816C358.18 95.256 358.612 94.824 359.172 94.824C359.7 94.824 360.132 95.256 360.132 95.816C360.132 96.376 359.7 96.808 359.172 96.808ZM366.085 99.32C364.661 99.32 363.477 100.264 363.317 101.976H368.853C368.869 100.264 367.589 99.32 366.085 99.32ZM370.181 104.296C369.733 105.896 368.325 107.144 366.149 107.144C363.653 107.144 361.813 105.384 361.813 102.6C361.813 99.832 363.589 98.088 366.149 98.088C368.693 98.088 370.357 99.88 370.357 102.28C370.357 102.6 370.341 102.856 370.309 103.16H363.301C363.413 104.936 364.661 105.912 366.149 105.912C367.461 105.912 368.293 105.24 368.613 104.296H370.181ZM383.857 95.832H385.312V107H383.857L378.001 98.12V107H376.545V95.832H378.001L383.857 104.696V95.832ZM396.115 102.6C396.115 105.384 394.115 107.144 391.619 107.144C389.139 107.144 387.251 105.384 387.251 102.6C387.251 99.832 389.203 98.088 391.683 98.088C394.179 98.088 396.115 99.832 396.115 102.6ZM388.739 102.6C388.739 104.824 390.099 105.864 391.619 105.864C393.139 105.864 394.627 104.824 394.627 102.6C394.627 100.392 393.171 99.352 391.667 99.352C390.131 99.352 388.739 100.392 388.739 102.6ZM398.349 104.6V99.432H397.213V98.232H398.349V96.024H399.805V98.232H402.093V99.432H399.805V104.6C399.805 105.464 400.125 105.768 401.021 105.768H402.093V107H400.781C399.229 107 398.349 106.36 398.349 104.6ZM403.857 107V98.232H405.313V107H403.857ZM404.609 96.808C404.049 96.808 403.617 96.376 403.617 95.816C403.617 95.256 404.049 94.824 404.609 94.824C405.137 94.824 405.569 95.256 405.569 95.816C405.569 96.376 405.137 96.808 404.609 96.808ZM407.251 102.6C407.251 99.848 409.027 98.088 411.523 98.088C413.699 98.088 415.123 99.208 415.571 101.048H414.003C413.699 99.992 412.819 99.32 411.523 99.32C409.923 99.32 408.739 100.456 408.739 102.6C408.739 104.776 409.923 105.912 411.523 105.912C412.819 105.912 413.683 105.288 414.003 104.184H415.571C415.123 105.928 413.699 107.144 411.523 107.144C409.027 107.144 407.251 105.384 407.251 102.6ZM421.241 99.32C419.817 99.32 418.633 100.264 418.473 101.976H424.009C424.025 100.264 422.745 99.32 421.241 99.32ZM425.337 104.296C424.889 105.896 423.481 107.144 421.305 107.144C418.809 107.144 416.969 105.384 416.969 102.6C416.969 99.832 418.745 98.088 421.305 98.088C423.849 98.088 425.513 99.88 425.513 102.28C425.513 102.6 425.497 102.856 425.465 103.16H418.457C418.569 104.936 419.817 105.912 421.305 105.912C422.617 105.912 423.449 105.24 423.769 104.296H425.337ZM440.6 94.28H442.056V108.696H440.6V94.28ZM457.141 101.416C457.141 98.072 459.589 95.704 462.709 95.704C465.125 95.704 467.045 96.92 467.877 99.08H466.133C465.525 97.736 464.341 96.984 462.709 96.984C460.373 96.984 458.629 98.68 458.629 101.416C458.629 104.136 460.373 105.832 462.709 105.832C464.341 105.832 465.525 105.08 466.133 103.752H467.877C467.045 105.896 465.125 107.096 462.709 107.096C459.589 107.096 457.141 104.76 457.141 101.416ZM478.365 102.6C478.365 105.384 476.365 107.144 473.869 107.144C471.389 107.144 469.501 105.384 469.501 102.6C469.501 99.832 471.453 98.088 473.933 98.088C476.429 98.088 478.365 99.832 478.365 102.6ZM470.989 102.6C470.989 104.824 472.349 105.864 473.869 105.864C475.389 105.864 476.877 104.824 476.877 102.6C476.877 100.392 475.421 99.352 473.917 99.352C472.381 99.352 470.989 100.392 470.989 102.6ZM481.735 99.848C482.263 98.92 483.415 98.088 485.015 98.088C487.367 98.088 489.175 99.848 489.175 102.584C489.175 105.304 487.367 107.144 485.015 107.144C483.415 107.144 482.279 106.28 481.735 105.384V111.16H480.279V98.232H481.735V99.848ZM487.687 102.584C487.687 100.52 486.327 99.352 484.711 99.352C483.127 99.352 481.735 100.568 481.735 102.6C481.735 104.664 483.127 105.864 484.711 105.864C486.327 105.864 487.687 104.648 487.687 102.584ZM494.419 105.336L497.139 98.232H498.643L493.363 111.128H491.859L493.587 106.904L490.051 98.232H491.667L494.419 105.336ZM501.563 102.232V107H500.107V98.232H501.563V99.656C502.059 98.68 503.003 98.072 504.395 98.072V99.576H504.011C502.619 99.576 501.563 100.2 501.563 102.232ZM506.076 107V98.232H507.532V107H506.076ZM506.828 96.808C506.268 96.808 505.836 96.376 505.836 95.816C505.836 95.256 506.268 94.824 506.828 94.824C507.356 94.824 507.788 95.256 507.788 95.816C507.788 96.376 507.356 96.808 506.828 96.808ZM509.469 102.584C509.469 99.848 511.277 98.088 513.629 98.088C515.229 98.088 516.381 98.888 516.893 99.832V98.232H518.365V107.192C518.365 109.608 516.749 111.32 514.173 111.32C511.869 111.32 510.221 110.152 509.933 108.28H511.373C511.693 109.336 512.733 110.056 514.173 110.056C515.725 110.056 516.893 109.064 516.893 107.192V105.352C516.365 106.296 515.229 107.144 513.629 107.144C511.277 107.144 509.469 105.304 509.469 102.584ZM516.893 102.6C516.893 100.568 515.517 99.352 513.917 99.352C512.317 99.352 510.957 100.52 510.957 102.584C510.957 104.648 512.317 105.864 513.917 105.864C515.517 105.864 516.893 104.664 516.893 102.6ZM520.826 107V95.16H522.282V99.496C522.858 98.568 523.946 98.072 525.178 98.072C527.13 98.072 528.682 99.32 528.682 101.832V107H527.242V102.04C527.242 100.248 526.266 99.336 524.794 99.336C523.306 99.336 522.282 100.264 522.282 102.152V107H520.826ZM531.38 104.6V99.432H530.244V98.232H531.38V96.024H532.836V98.232H535.124V99.432H532.836V104.6C532.836 105.464 533.156 105.768 534.052 105.768H535.124V107H533.812C532.26 107 531.38 106.36 531.38 104.6ZM542.61 101.144H544.754C546.418 101.144 547.122 100.36 547.122 99.112C547.122 97.816 546.418 97.048 544.754 97.048H542.61V101.144ZM548.61 99.112C548.61 100.808 547.522 102.344 544.754 102.344H542.61V107H541.154V95.848H544.754C547.378 95.848 548.61 97.288 548.61 99.112ZM558.74 102.6C558.74 105.384 556.74 107.144 554.244 107.144C551.764 107.144 549.876 105.384 549.876 102.6C549.876 99.832 551.828 98.088 554.308 98.088C556.804 98.088 558.74 99.832 558.74 102.6ZM551.364 102.6C551.364 104.824 552.724 105.864 554.244 105.864C555.764 105.864 557.252 104.824 557.252 102.6C557.252 100.392 555.796 99.352 554.292 99.352C552.756 99.352 551.364 100.392 551.364 102.6ZM560.654 107V95.16H562.11V107H560.654ZM564.591 107V98.232H566.047V107H564.591ZM565.343 96.808C564.783 96.808 564.351 96.376 564.351 95.816C564.351 95.256 564.783 94.824 565.343 94.824C565.871 94.824 566.303 95.256 566.303 95.816C566.303 96.376 565.871 96.808 565.343 96.808ZM567.985 102.6C567.985 99.848 569.761 98.088 572.257 98.088C574.433 98.088 575.857 99.208 576.305 101.048H574.737C574.433 99.992 573.553 99.32 572.257 99.32C570.657 99.32 569.473 100.456 569.473 102.6C569.473 104.776 570.657 105.912 572.257 105.912C573.553 105.912 574.417 105.288 574.737 104.184H576.305C575.857 105.928 574.433 107.144 572.257 107.144C569.761 107.144 567.985 105.384 567.985 102.6ZM581.576 105.336L584.296 98.232H585.8L580.52 111.128H579.016L580.744 106.904L577.208 98.232H578.824L581.576 105.336ZM600.428 94.28H601.884V108.696H600.428V94.28ZM620.985 95.848C624.649 95.848 626.905 97.992 626.905 101.448C626.905 104.904 624.649 107 620.985 107H617.513V95.848H620.985ZM618.969 105.8H620.985C623.897 105.8 625.417 104.168 625.417 101.448C625.417 98.728 623.897 97.032 620.985 97.032H618.969V105.8ZM628.282 102.584C628.282 99.848 630.09 98.088 632.442 98.088C634.074 98.088 635.194 98.92 635.706 99.832V98.232H637.178V107H635.706V105.368C635.178 106.312 634.042 107.144 632.426 107.144C630.09 107.144 628.282 105.304 628.282 102.584ZM635.706 102.6C635.706 100.568 634.33 99.352 632.73 99.352C631.13 99.352 629.77 100.52 629.77 102.584C629.77 104.648 631.13 105.864 632.73 105.864C634.33 105.864 635.706 104.664 635.706 102.6ZM639.958 104.6V99.432H638.822V98.232H639.958V96.024H641.414V98.232H643.702V99.432H641.414V104.6C641.414 105.464 641.734 105.768 642.63 105.768H643.702V107H642.39C640.838 107 639.958 106.36 639.958 104.6ZM644.922 102.584C644.922 99.848 646.73 98.088 649.082 98.088C650.714 98.088 651.834 98.92 652.346 99.832V98.232H653.818V107H652.346V105.368C651.818 106.312 650.682 107.144 649.066 107.144C646.73 107.144 644.922 105.304 644.922 102.584ZM652.346 102.6C652.346 100.568 650.97 99.352 649.37 99.352C647.77 99.352 646.41 100.52 646.41 102.584C646.41 104.648 647.77 105.864 649.37 105.864C650.97 105.864 652.346 104.664 652.346 102.6ZM662.001 101.144H664.145C665.809 101.144 666.513 100.36 666.513 99.112C666.513 97.816 665.809 97.048 664.145 97.048H662.001V101.144ZM668.001 99.112C668.001 100.808 666.913 102.344 664.145 102.344H662.001V107H660.545V95.848H664.145C666.769 95.848 668.001 97.288 668.001 99.112ZM678.13 102.6C678.13 105.384 676.13 107.144 673.634 107.144C671.154 107.144 669.266 105.384 669.266 102.6C669.266 99.832 671.218 98.088 673.698 98.088C676.194 98.088 678.13 99.832 678.13 102.6ZM670.754 102.6C670.754 104.824 672.114 105.864 673.634 105.864C675.154 105.864 676.642 104.824 676.642 102.6C676.642 100.392 675.186 99.352 673.682 99.352C672.146 99.352 670.754 100.392 670.754 102.6ZM680.045 107V95.16H681.501V107H680.045ZM683.982 107V98.232H685.438V107H683.982ZM684.734 96.808C684.174 96.808 683.742 96.376 683.742 95.816C683.742 95.256 684.174 94.824 684.734 94.824C685.262 94.824 685.694 95.256 685.694 95.816C685.694 96.376 685.262 96.808 684.734 96.808ZM687.376 102.6C687.376 99.848 689.152 98.088 691.648 98.088C693.824 98.088 695.248 99.208 695.696 101.048H694.128C693.824 99.992 692.944 99.32 691.648 99.32C690.048 99.32 688.864 100.456 688.864 102.6C688.864 104.776 690.048 105.912 691.648 105.912C692.944 105.912 693.808 105.288 694.128 104.184H695.696C695.248 105.928 693.824 107.144 691.648 107.144C689.152 107.144 687.376 105.384 687.376 102.6ZM700.966 105.336L703.686 98.232H705.19L699.91 111.128H698.406L700.134 106.904L696.598 98.232H698.214L700.966 105.336Z" fill="#646060"/>
<path d="M204.352 139.736C205.429 139.736 206.389 139.981 207.232 140.472C208.075 140.952 208.725 141.624 209.184 142.488C209.653 143.341 209.888 144.317 209.888 145.416C209.888 146.515 209.653 147.496 209.184 148.36C208.725 149.213 208.075 149.885 207.232 150.376C206.389 150.856 205.429 151.096 204.352 151.096C203.264 151.096 202.299 150.856 201.456 150.376C200.613 149.885 199.957 149.213 199.488 148.36C199.019 147.496 198.784 146.515 198.784 145.416C198.784 144.317 199.019 143.341 199.488 142.488C199.957 141.624 200.613 140.952 201.456 140.472C202.299 139.981 203.264 139.736 204.352 139.736ZM204.352 140.376C203.36 140.376 202.496 140.589 201.76 141.016C201.024 141.432 200.459 142.019 200.064 142.776C199.669 143.533 199.472 144.413 199.472 145.416C199.472 146.408 199.669 147.288 200.064 148.056C200.459 148.813 201.024 149.405 201.76 149.832C202.496 150.259 203.36 150.472 204.352 150.472C205.333 150.472 206.187 150.259 206.912 149.832C207.648 149.405 208.213 148.813 208.608 148.056C209.003 147.288 209.2 146.408 209.2 145.416C209.2 144.413 209.003 143.533 208.608 142.776C208.213 142.019 207.648 141.432 206.912 141.016C206.187 140.589 205.333 140.376 204.352 140.376ZM204.32 141.704C203.68 141.704 203.093 141.853 202.56 142.152C202.037 142.451 201.621 142.883 201.312 143.448C201.003 144.003 200.848 144.653 200.848 145.4C200.848 146.147 201.003 146.803 201.312 147.368C201.621 147.923 202.037 148.355 202.56 148.664C203.093 148.963 203.68 149.112 204.32 149.112C205.12 149.112 205.813 148.899 206.4 148.472C206.987 148.035 207.387 147.453 207.6 146.728H206.256C205.936 147.613 205.291 148.056 204.32 148.056C203.68 148.056 203.157 147.827 202.752 147.368C202.347 146.909 202.144 146.259 202.144 145.416C202.144 144.563 202.347 143.907 202.752 143.448C203.157 142.989 203.68 142.76 204.32 142.76C204.789 142.76 205.195 142.877 205.536 143.112C205.877 143.336 206.117 143.661 206.256 144.088H207.6C207.397 143.331 207.003 142.744 206.416 142.328C205.829 141.912 205.131 141.704 204.32 141.704ZM215.754 149.832C217.108 148.744 218.17 147.853 218.938 147.16C219.706 146.456 220.351 145.725 220.874 144.968C221.407 144.2 221.674 143.448 221.674 142.712C221.674 142.019 221.503 141.475 221.162 141.08C220.831 140.675 220.292 140.472 219.546 140.472C218.82 140.472 218.255 140.701 217.85 141.16C217.455 141.608 217.242 142.211 217.21 142.968H215.802C215.844 141.773 216.207 140.851 216.89 140.2C217.572 139.549 218.452 139.224 219.53 139.224C220.628 139.224 221.498 139.528 222.138 140.136C222.788 140.744 223.114 141.581 223.114 142.648C223.114 143.533 222.847 144.397 222.314 145.24C221.791 146.072 221.194 146.808 220.522 147.448C219.85 148.077 218.991 148.813 217.946 149.656H223.45V150.872H215.754V149.832ZM225.133 145.096C225.133 143.261 225.431 141.832 226.029 140.808C226.626 139.773 227.671 139.256 229.165 139.256C230.647 139.256 231.687 139.773 232.285 140.808C232.882 141.832 233.181 143.261 233.181 145.096C233.181 146.963 232.882 148.413 232.285 149.448C231.687 150.483 230.647 151 229.165 151C227.671 151 226.626 150.483 226.029 149.448C225.431 148.413 225.133 146.963 225.133 145.096ZM231.741 145.096C231.741 144.168 231.677 143.384 231.549 142.744C231.431 142.093 231.181 141.571 230.797 141.176C230.423 140.781 229.879 140.584 229.165 140.584C228.439 140.584 227.885 140.781 227.501 141.176C227.127 141.571 226.877 142.093 226.749 142.744C226.631 143.384 226.573 144.168 226.573 145.096C226.573 146.056 226.631 146.861 226.749 147.512C226.877 148.163 227.127 148.685 227.501 149.08C227.885 149.475 228.439 149.672 229.165 149.672C229.879 149.672 230.423 149.475 230.797 149.08C231.181 148.685 231.431 148.163 231.549 147.512C231.677 146.861 231.741 146.056 231.741 145.096ZM235.004 149.832C236.358 148.744 237.42 147.853 238.188 147.16C238.956 146.456 239.601 145.725 240.124 144.968C240.657 144.2 240.924 143.448 240.924 142.712C240.924 142.019 240.753 141.475 240.412 141.08C240.081 140.675 239.542 140.472 238.796 140.472C238.07 140.472 237.505 140.701 237.1 141.16C236.705 141.608 236.492 142.211 236.46 142.968H235.052C235.094 141.773 235.457 140.851 236.14 140.2C236.822 139.549 237.702 139.224 238.78 139.224C239.878 139.224 240.748 139.528 241.388 140.136C242.038 140.744 242.364 141.581 242.364 142.648C242.364 143.533 242.097 144.397 241.564 145.24C241.041 146.072 240.444 146.808 239.772 147.448C239.1 148.077 238.241 148.813 237.196 149.656H242.7V150.872H235.004V149.832ZM251.759 140.696H246.143V144.344C246.388 144.003 246.751 143.725 247.231 143.512C247.711 143.288 248.228 143.176 248.783 143.176C249.668 143.176 250.388 143.363 250.943 143.736C251.497 144.099 251.892 144.573 252.127 145.16C252.372 145.736 252.495 146.349 252.495 147C252.495 147.768 252.351 148.456 252.063 149.064C251.775 149.672 251.332 150.152 250.735 150.504C250.148 150.856 249.417 151.032 248.543 151.032C247.423 151.032 246.516 150.744 245.823 150.168C245.129 149.592 244.708 148.824 244.559 147.864H245.983C246.121 148.472 246.415 148.947 246.863 149.288C247.311 149.629 247.876 149.8 248.559 149.8C249.401 149.8 250.036 149.549 250.463 149.048C250.889 148.536 251.103 147.864 251.103 147.032C251.103 146.2 250.889 145.56 250.463 145.112C250.036 144.653 249.407 144.424 248.575 144.424C248.009 144.424 247.513 144.563 247.087 144.84C246.671 145.107 246.367 145.475 246.175 145.944H244.799V139.416H251.759V140.696ZM267.703 151H266.247L260.391 142.12V151H258.935V139.832H260.391L266.247 148.696V139.832H267.703V151ZM278.185 146.28C278.185 146.557 278.169 146.851 278.137 147.16H271.129C271.182 148.024 271.476 148.701 272.009 149.192C272.553 149.672 273.209 149.912 273.977 149.912C274.606 149.912 275.129 149.768 275.545 149.48C275.972 149.181 276.27 148.787 276.441 148.296H278.009C277.774 149.139 277.305 149.827 276.601 150.36C275.897 150.883 275.022 151.144 273.977 151.144C273.145 151.144 272.398 150.957 271.737 150.584C271.086 150.211 270.574 149.683 270.201 149C269.828 148.307 269.641 147.507 269.641 146.6C269.641 145.693 269.822 144.899 270.185 144.216C270.548 143.533 271.054 143.011 271.705 142.648C272.366 142.275 273.124 142.088 273.977 142.088C274.809 142.088 275.545 142.269 276.185 142.632C276.825 142.995 277.316 143.496 277.657 144.136C278.009 144.765 278.185 145.48 278.185 146.28ZM276.681 145.976C276.681 145.421 276.558 144.947 276.313 144.552C276.068 144.147 275.732 143.843 275.305 143.64C274.889 143.427 274.425 143.32 273.913 143.32C273.177 143.32 272.548 143.555 272.025 144.024C271.513 144.493 271.22 145.144 271.145 145.976H276.681ZM287.883 142.232V151H286.427V149.704C286.15 150.152 285.76 150.504 285.259 150.76C284.768 151.005 284.224 151.128 283.627 151.128C282.944 151.128 282.331 150.989 281.787 150.712C281.243 150.424 280.811 149.997 280.491 149.432C280.182 148.867 280.027 148.179 280.027 147.368V142.232H281.467V147.176C281.467 148.04 281.686 148.707 282.123 149.176C282.56 149.635 283.158 149.864 283.915 149.864C284.694 149.864 285.307 149.624 285.755 149.144C286.203 148.664 286.427 147.965 286.427 147.048V142.232H287.883ZM291.797 143.656C292.053 143.155 292.416 142.765 292.885 142.488C293.365 142.211 293.947 142.072 294.629 142.072V143.576H294.245C292.613 143.576 291.797 144.461 291.797 146.232V151H290.341V142.232H291.797V143.656ZM295.766 146.584C295.766 145.688 295.947 144.904 296.31 144.232C296.673 143.549 297.169 143.021 297.798 142.648C298.438 142.275 299.147 142.088 299.926 142.088C300.694 142.088 301.361 142.253 301.926 142.584C302.491 142.915 302.913 143.331 303.19 143.832V142.232H304.662V151H303.19V149.368C302.902 149.88 302.47 150.307 301.894 150.648C301.329 150.979 300.667 151.144 299.91 151.144C299.131 151.144 298.427 150.952 297.798 150.568C297.169 150.184 296.673 149.645 296.31 148.952C295.947 148.259 295.766 147.469 295.766 146.584ZM303.19 146.6C303.19 145.939 303.057 145.363 302.79 144.872C302.523 144.381 302.161 144.008 301.702 143.752C301.254 143.485 300.758 143.352 300.214 143.352C299.67 143.352 299.174 143.48 298.726 143.736C298.278 143.992 297.921 144.365 297.654 144.856C297.387 145.347 297.254 145.923 297.254 146.584C297.254 147.256 297.387 147.843 297.654 148.344C297.921 148.835 298.278 149.213 298.726 149.48C299.174 149.736 299.67 149.864 300.214 149.864C300.758 149.864 301.254 149.736 301.702 149.48C302.161 149.213 302.523 148.835 302.79 148.344C303.057 147.843 303.19 147.261 303.19 146.6ZM308.579 139.16V151H307.123V139.16H308.579ZM314.782 145.416C314.782 144.328 315.027 143.352 315.518 142.488C316.008 141.613 316.675 140.931 317.518 140.44C318.371 139.949 319.315 139.704 320.35 139.704C321.566 139.704 322.627 139.997 323.534 140.584C324.44 141.171 325.102 142.003 325.518 143.08H323.774C323.464 142.408 323.016 141.891 322.43 141.528C321.854 141.165 321.16 140.984 320.35 140.984C319.571 140.984 318.872 141.165 318.254 141.528C317.635 141.891 317.15 142.408 316.798 143.08C316.446 143.741 316.27 144.52 316.27 145.416C316.27 146.301 316.446 147.08 316.798 147.752C317.15 148.413 317.635 148.925 318.254 149.288C318.872 149.651 319.571 149.832 320.35 149.832C321.16 149.832 321.854 149.656 322.43 149.304C323.016 148.941 323.464 148.424 323.774 147.752H325.518C325.102 148.819 324.44 149.645 323.534 150.232C322.627 150.808 321.566 151.096 320.35 151.096C319.315 151.096 318.371 150.856 317.518 150.376C316.675 149.885 316.008 149.208 315.518 148.344C315.027 147.48 314.782 146.504 314.782 145.416ZM327.141 146.584C327.141 145.688 327.322 144.904 327.685 144.232C328.048 143.549 328.544 143.021 329.173 142.648C329.813 142.275 330.522 142.088 331.301 142.088C332.069 142.088 332.736 142.253 333.301 142.584C333.866 142.915 334.288 143.331 334.565 143.832V142.232H336.037V151H334.565V149.368C334.277 149.88 333.845 150.307 333.269 150.648C332.704 150.979 332.042 151.144 331.285 151.144C330.506 151.144 329.802 150.952 329.173 150.568C328.544 150.184 328.048 149.645 327.685 148.952C327.322 148.259 327.141 147.469 327.141 146.584ZM334.565 146.6C334.565 145.939 334.432 145.363 334.165 144.872C333.898 144.381 333.536 144.008 333.077 143.752C332.629 143.485 332.133 143.352 331.589 143.352C331.045 143.352 330.549 143.48 330.101 143.736C329.653 143.992 329.296 144.365 329.029 144.856C328.762 145.347 328.629 145.923 328.629 146.584C328.629 147.256 328.762 147.843 329.029 148.344C329.296 148.835 329.653 149.213 330.101 149.48C330.549 149.736 331.045 149.864 331.589 149.864C332.133 149.864 332.629 149.736 333.077 149.48C333.536 149.213 333.898 148.835 334.165 148.344C334.432 147.843 334.565 147.261 334.565 146.6ZM341.602 151.144C340.93 151.144 340.327 151.032 339.794 150.808C339.26 150.573 338.839 150.253 338.53 149.848C338.22 149.432 338.05 148.957 338.018 148.424H339.522C339.564 148.861 339.767 149.219 340.13 149.496C340.503 149.773 340.988 149.912 341.586 149.912C342.14 149.912 342.578 149.789 342.898 149.544C343.218 149.299 343.378 148.989 343.378 148.616C343.378 148.232 343.207 147.949 342.866 147.768C342.524 147.576 341.996 147.389 341.282 147.208C340.631 147.037 340.098 146.867 339.682 146.696C339.276 146.515 338.924 146.253 338.626 145.912C338.338 145.56 338.194 145.101 338.194 144.536C338.194 144.088 338.327 143.677 338.594 143.304C338.86 142.931 339.239 142.637 339.73 142.424C340.22 142.2 340.78 142.088 341.41 142.088C342.38 142.088 343.164 142.333 343.762 142.824C344.359 143.315 344.679 143.987 344.722 144.84H343.266C343.234 144.381 343.047 144.013 342.706 143.736C342.375 143.459 341.927 143.32 341.362 143.32C340.839 143.32 340.423 143.432 340.114 143.656C339.804 143.88 339.65 144.173 339.65 144.536C339.65 144.824 339.74 145.064 339.922 145.256C340.114 145.437 340.348 145.587 340.626 145.704C340.914 145.811 341.308 145.933 341.81 146.072C342.439 146.243 342.951 146.413 343.346 146.584C343.74 146.744 344.076 146.989 344.354 147.32C344.642 147.651 344.791 148.083 344.802 148.616C344.802 149.096 344.668 149.528 344.402 149.912C344.135 150.296 343.756 150.6 343.266 150.824C342.786 151.037 342.231 151.144 341.602 151.144ZM351.209 142.072C351.87 142.072 352.468 142.216 353.001 142.504C353.534 142.781 353.95 143.203 354.249 143.768C354.558 144.333 354.713 145.021 354.713 145.832V151H353.273V146.04C353.273 145.165 353.054 144.499 352.617 144.04C352.18 143.571 351.582 143.336 350.825 143.336C350.057 143.336 349.444 143.576 348.985 144.056C348.537 144.536 348.313 145.235 348.313 146.152V151H346.857V139.16H348.313V143.48C348.601 143.032 348.996 142.685 349.497 142.44C350.009 142.195 350.58 142.072 351.209 142.072ZM357.555 151.096C357.278 151.096 357.043 151 356.851 150.808C356.659 150.616 356.563 150.381 356.563 150.104C356.563 149.827 356.659 149.592 356.851 149.4C357.043 149.208 357.278 149.112 357.555 149.112C357.822 149.112 358.046 149.208 358.227 149.4C358.419 149.592 358.515 149.827 358.515 150.104C358.515 150.381 358.419 150.616 358.227 150.808C358.046 151 357.822 151.096 357.555 151.096ZM371.308 148.52H366.444L365.548 151H364.012L368.044 139.912H369.724L373.74 151H372.204L371.308 148.52ZM370.892 147.336L368.876 141.704L366.86 147.336H370.892ZM376.954 139.16V151H375.498V139.16H376.954ZM380.891 139.16V151H379.435V139.16H380.891ZM389.094 143.656C389.35 143.155 389.713 142.765 390.182 142.488C390.662 142.211 391.244 142.072 391.926 142.072V143.576H391.542C389.91 143.576 389.094 144.461 389.094 146.232V151H387.638V142.232H389.094V143.656ZM394.359 140.808C394.082 140.808 393.847 140.712 393.655 140.52C393.463 140.328 393.367 140.093 393.367 139.816C393.367 139.539 393.463 139.304 393.655 139.112C393.847 138.92 394.082 138.824 394.359 138.824C394.626 138.824 394.85 138.92 395.031 139.112C395.223 139.304 395.319 139.539 395.319 139.816C395.319 140.093 395.223 140.328 395.031 140.52C394.85 140.712 394.626 140.808 394.359 140.808ZM395.063 142.232V151H393.607V142.232H395.063ZM401.161 142.088C401.918 142.088 402.579 142.253 403.145 142.584C403.721 142.915 404.147 143.331 404.425 143.832V142.232H405.897V151.192C405.897 151.992 405.726 152.701 405.385 153.32C405.043 153.949 404.553 154.44 403.913 154.792C403.283 155.144 402.547 155.32 401.705 155.32C400.553 155.32 399.593 155.048 398.825 154.504C398.057 153.96 397.603 153.219 397.465 152.28H398.905C399.065 152.813 399.395 153.24 399.897 153.56C400.398 153.891 401.001 154.056 401.705 154.056C402.505 154.056 403.155 153.805 403.657 153.304C404.169 152.803 404.425 152.099 404.425 151.192V149.352C404.137 149.864 403.71 150.291 403.145 150.632C402.579 150.973 401.918 151.144 401.161 151.144C400.382 151.144 399.673 150.952 399.033 150.568C398.403 150.184 397.907 149.645 397.545 148.952C397.182 148.259 397.001 147.469 397.001 146.584C397.001 145.688 397.182 144.904 397.545 144.232C397.907 143.549 398.403 143.021 399.033 142.648C399.673 142.275 400.382 142.088 401.161 142.088ZM404.425 146.6C404.425 145.939 404.291 145.363 404.025 144.872C403.758 144.381 403.395 144.008 402.937 143.752C402.489 143.485 401.993 143.352 401.449 143.352C400.905 143.352 400.409 143.48 399.961 143.736C399.513 143.992 399.155 144.365 398.889 144.856C398.622 145.347 398.489 145.923 398.489 146.584C398.489 147.256 398.622 147.843 398.889 148.344C399.155 148.835 399.513 149.213 399.961 149.48C400.409 149.736 400.905 149.864 401.449 149.864C401.993 149.864 402.489 149.736 402.937 149.48C403.395 149.213 403.758 148.835 404.025 148.344C404.291 147.843 404.425 147.261 404.425 146.6ZM412.709 142.072C413.37 142.072 413.968 142.216 414.501 142.504C415.034 142.781 415.45 143.203 415.749 143.768C416.058 144.333 416.213 145.021 416.213 145.832V151H414.773V146.04C414.773 145.165 414.554 144.499 414.117 144.04C413.68 143.571 413.082 143.336 412.325 143.336C411.557 143.336 410.944 143.576 410.485 144.056C410.037 144.536 409.813 145.235 409.813 146.152V151H408.357V139.16H409.813V143.48C410.101 143.032 410.496 142.685 410.997 142.44C411.509 142.195 412.08 142.072 412.709 142.072ZM420.367 143.432V148.6C420.367 149.027 420.458 149.331 420.639 149.512C420.821 149.683 421.135 149.768 421.583 149.768H422.655V151H421.343C420.533 151 419.925 150.813 419.519 150.44C419.114 150.067 418.911 149.453 418.911 148.6V143.432H417.775V142.232H418.911V140.024H420.367V142.232H422.655V143.432H420.367ZM427.524 151.144C426.852 151.144 426.249 151.032 425.716 150.808C425.182 150.573 424.761 150.253 424.452 149.848C424.142 149.432 423.972 148.957 423.94 148.424H425.444C425.486 148.861 425.689 149.219 426.052 149.496C426.425 149.773 426.91 149.912 427.508 149.912C428.062 149.912 428.5 149.789 428.82 149.544C429.14 149.299 429.3 148.989 429.3 148.616C429.3 148.232 429.129 147.949 428.788 147.768C428.446 147.576 427.918 147.389 427.204 147.208C426.553 147.037 426.02 146.867 425.604 146.696C425.198 146.515 424.846 146.253 424.548 145.912C424.26 145.56 424.116 145.101 424.116 144.536C424.116 144.088 424.249 143.677 424.516 143.304C424.782 142.931 425.161 142.637 425.652 142.424C426.142 142.2 426.702 142.088 427.332 142.088C428.302 142.088 429.086 142.333 429.684 142.824C430.281 143.315 430.601 143.987 430.644 144.84H429.188C429.156 144.381 428.969 144.013 428.628 143.736C428.297 143.459 427.849 143.32 427.284 143.32C426.761 143.32 426.345 143.432 426.036 143.656C425.726 143.88 425.572 144.173 425.572 144.536C425.572 144.824 425.662 145.064 425.844 145.256C426.036 145.437 426.27 145.587 426.548 145.704C426.836 145.811 427.23 145.933 427.732 146.072C428.361 146.243 428.873 146.413 429.268 146.584C429.662 146.744 429.998 146.989 430.276 147.32C430.564 147.651 430.713 148.083 430.724 148.616C430.724 149.096 430.59 149.528 430.324 149.912C430.057 150.296 429.678 150.6 429.188 150.824C428.708 151.037 428.153 151.144 427.524 151.144ZM438.501 143.656C438.757 143.155 439.119 142.765 439.589 142.488C440.069 142.211 440.65 142.072 441.333 142.072V143.576H440.949C439.317 143.576 438.501 144.461 438.501 146.232V151H437.045V142.232H438.501V143.656ZM451.013 146.28C451.013 146.557 450.997 146.851 450.965 147.16H443.957C444.011 148.024 444.304 148.701 444.837 149.192C445.381 149.672 446.037 149.912 446.805 149.912C447.435 149.912 447.957 149.768 448.373 149.48C448.8 149.181 449.099 148.787 449.269 148.296H450.837C450.603 149.139 450.133 149.827 449.429 150.36C448.725 150.883 447.851 151.144 446.805 151.144C445.973 151.144 445.227 150.957 444.565 150.584C443.915 150.211 443.403 149.683 443.029 149C442.656 148.307 442.469 147.507 442.469 146.6C442.469 145.693 442.651 144.899 443.013 144.216C443.376 143.533 443.883 143.011 444.533 142.648C445.195 142.275 445.952 142.088 446.805 142.088C447.637 142.088 448.373 142.269 449.013 142.632C449.653 142.995 450.144 143.496 450.485 144.136C450.837 144.765 451.013 145.48 451.013 146.28ZM449.509 145.976C449.509 145.421 449.387 144.947 449.141 144.552C448.896 144.147 448.56 143.843 448.133 143.64C447.717 143.427 447.253 143.32 446.741 143.32C446.005 143.32 445.376 143.555 444.853 144.024C444.341 144.493 444.048 145.144 443.973 145.976H449.509ZM456.039 151.144C455.367 151.144 454.764 151.032 454.231 150.808C453.698 150.573 453.276 150.253 452.967 149.848C452.658 149.432 452.487 148.957 452.455 148.424H453.959C454.002 148.861 454.204 149.219 454.567 149.496C454.94 149.773 455.426 149.912 456.023 149.912C456.578 149.912 457.015 149.789 457.335 149.544C457.655 149.299 457.815 148.989 457.815 148.616C457.815 148.232 457.644 147.949 457.303 147.768C456.962 147.576 456.434 147.389 455.719 147.208C455.068 147.037 454.535 146.867 454.119 146.696C453.714 146.515 453.362 146.253 453.063 145.912C452.775 145.56 452.631 145.101 452.631 144.536C452.631 144.088 452.764 143.677 453.031 143.304C453.298 142.931 453.676 142.637 454.167 142.424C454.658 142.2 455.218 142.088 455.847 142.088C456.818 142.088 457.602 142.333 458.199 142.824C458.796 143.315 459.116 143.987 459.159 144.84H457.703C457.671 144.381 457.484 144.013 457.143 143.736C456.812 143.459 456.364 143.32 455.799 143.32C455.276 143.32 454.86 143.432 454.551 143.656C454.242 143.88 454.087 144.173 454.087 144.536C454.087 144.824 454.178 145.064 454.359 145.256C454.551 145.437 454.786 145.587 455.063 145.704C455.351 145.811 455.746 145.933 456.247 146.072C456.876 146.243 457.388 146.413 457.783 146.584C458.178 146.744 458.514 146.989 458.791 147.32C459.079 147.651 459.228 148.083 459.239 148.616C459.239 149.096 459.106 149.528 458.839 149.912C458.572 150.296 458.194 150.6 457.703 150.824C457.223 151.037 456.668 151.144 456.039 151.144ZM469.295 146.28C469.295 146.557 469.279 146.851 469.247 147.16H462.239C462.292 148.024 462.585 148.701 463.119 149.192C463.663 149.672 464.319 149.912 465.087 149.912C465.716 149.912 466.239 149.768 466.655 149.48C467.081 149.181 467.38 148.787 467.551 148.296H469.119C468.884 149.139 468.415 149.827 467.711 150.36C467.007 150.883 466.132 151.144 465.087 151.144C464.255 151.144 463.508 150.957 462.847 150.584C462.196 150.211 461.684 149.683 461.311 149C460.937 148.307 460.751 147.507 460.751 146.6C460.751 145.693 460.932 144.899 461.295 144.216C461.657 143.533 462.164 143.011 462.815 142.648C463.476 142.275 464.233 142.088 465.087 142.088C465.919 142.088 466.655 142.269 467.295 142.632C467.935 142.995 468.425 143.496 468.767 144.136C469.119 144.765 469.295 145.48 469.295 146.28ZM467.791 145.976C467.791 145.421 467.668 144.947 467.423 144.552C467.177 144.147 466.841 143.843 466.415 143.64C465.999 143.427 465.535 143.32 465.023 143.32C464.287 143.32 463.657 143.555 463.135 144.024C462.623 144.493 462.329 145.144 462.255 145.976H467.791ZM472.672 143.656C472.928 143.155 473.291 142.765 473.76 142.488C474.24 142.211 474.822 142.072 475.504 142.072V143.576H475.12C473.488 143.576 472.672 144.461 472.672 146.232V151H471.216V142.232H472.672V143.656ZM480.449 149.656L483.169 142.232H484.721L481.281 151H479.585L476.145 142.232H477.713L480.449 149.656ZM494.154 146.28C494.154 146.557 494.138 146.851 494.106 147.16H487.098C487.151 148.024 487.445 148.701 487.978 149.192C488.522 149.672 489.178 149.912 489.946 149.912C490.575 149.912 491.098 149.768 491.514 149.48C491.941 149.181 492.239 148.787 492.41 148.296H493.978C493.743 149.139 493.274 149.827 492.57 150.36C491.866 150.883 490.991 151.144 489.946 151.144C489.114 151.144 488.367 150.957 487.706 150.584C487.055 150.211 486.543 149.683 486.17 149C485.797 148.307 485.61 147.507 485.61 146.6C485.61 145.693 485.791 144.899 486.154 144.216C486.517 143.533 487.023 143.011 487.674 142.648C488.335 142.275 489.093 142.088 489.946 142.088C490.778 142.088 491.514 142.269 492.154 142.632C492.794 142.995 493.285 143.496 493.626 144.136C493.978 144.765 494.154 145.48 494.154 146.28ZM492.65 145.976C492.65 145.421 492.527 144.947 492.282 144.552C492.037 144.147 491.701 143.843 491.274 143.64C490.858 143.427 490.394 143.32 489.882 143.32C489.146 143.32 488.517 143.555 487.994 144.024C487.482 144.493 487.189 145.144 487.114 145.976H492.65ZM495.532 146.584C495.532 145.688 495.713 144.904 496.076 144.232C496.438 143.549 496.934 143.021 497.564 142.648C498.204 142.275 498.918 142.088 499.708 142.088C500.39 142.088 501.025 142.248 501.612 142.568C502.198 142.877 502.646 143.288 502.956 143.8V139.16H504.428V151H502.956V149.352C502.668 149.875 502.241 150.307 501.676 150.648C501.11 150.979 500.449 151.144 499.692 151.144C498.913 151.144 498.204 150.952 497.564 150.568C496.934 150.184 496.438 149.645 496.076 148.952C495.713 148.259 495.532 147.469 495.532 146.584ZM502.956 146.6C502.956 145.939 502.822 145.363 502.556 144.872C502.289 144.381 501.926 144.008 501.468 143.752C501.02 143.485 500.524 143.352 499.98 143.352C499.436 143.352 498.94 143.48 498.492 143.736C498.044 143.992 497.686 144.365 497.42 144.856C497.153 145.347 497.02 145.923 497.02 146.584C497.02 147.256 497.153 147.843 497.42 148.344C497.686 148.835 498.044 149.213 498.492 149.48C498.94 149.736 499.436 149.864 499.98 149.864C500.524 149.864 501.02 149.736 501.468 149.48C501.926 149.213 502.289 148.835 502.556 148.344C502.822 147.843 502.956 147.261 502.956 146.6ZM507.352 151.096C507.075 151.096 506.84 151 506.648 150.808C506.456 150.616 506.36 150.381 506.36 150.104C506.36 149.827 506.456 149.592 506.648 149.4C506.84 149.208 507.075 149.112 507.352 149.112C507.619 149.112 507.843 149.208 508.024 149.4C508.216 149.592 508.312 149.827 508.312 150.104C508.312 150.381 508.216 150.616 508.024 150.808C507.843 151 507.619 151.096 507.352 151.096Z" fill="#646060"/>
<defs>
<clipPath id="clip0_4054_1408">
<rect width="16" height="16" fill="white" transform="translate(368 8)"/>
</clipPath>
</defs>
</svg>
