<svg width="72" height="72" viewBox="0 0 72 72" fill="none" xmlns="http://www.w3.org/2000/svg">
<path fill-rule="evenodd" clip-rule="evenodd" d="M56.4 20.0656C59.3823 20.0656 61.8 17.6875 61.8 14.7541C61.8 11.8207 59.3823 9.44263 56.4 9.44263C53.4177 9.44263 51 11.8207 51 14.7541C51 17.6875 53.4177 20.0656 56.4 20.0656Z" fill="#7F265B"/>
<path fill-rule="evenodd" clip-rule="evenodd" d="M16.2001 20.0656C19.1824 20.0656 21.6001 17.6875 21.6001 14.7541C21.6001 11.8207 19.1824 9.44263 16.2001 9.44263C13.2177 9.44263 10.8001 11.8207 10.8001 14.7541C10.8001 17.6875 13.2177 20.0656 16.2001 20.0656Z" fill="#7F265B"/>
<path fill-rule="evenodd" clip-rule="evenodd" d="M16.2001 62.5573C19.1824 62.5573 21.6001 60.1792 21.6001 57.2458C21.6001 54.3124 19.1824 51.9343 16.2001 51.9343C13.2177 51.9343 10.8001 54.3124 10.8001 57.2458C10.8001 60.1792 13.2177 62.5573 16.2001 62.5573Z" fill="#7F265B"/>
<path fill-rule="evenodd" clip-rule="evenodd" d="M56.4 62.5573C59.3823 62.5573 61.8 60.1792 61.8 57.2458C61.8 54.3124 59.3823 51.9343 56.4 51.9343C53.4177 51.9343 51 54.3124 51 57.2458C51 60.1792 53.4177 62.5573 56.4 62.5573Z" fill="#7F265B"/>
<rect y="32.459" width="72" height="7.08197" rx="3.54098" fill="#555555"/>
<rect x="39.6" y="42.4917" width="29.5082" height="7.2" rx="3.6" transform="rotate(90 39.6 42.4917)" fill="#555555"/>
<rect x="39.6" width="29.5082" height="7.2" rx="3.6" transform="rotate(90 39.6 0)" fill="#555555"/>
</svg>
